<?xml version="1.0" encoding="utf-8"?>
<!-- Generator: Adobe Illustrator 16.0.0, SVG Export Plug-In . SVG Version: 6.00 Build 0)  -->
<!DOCTYPE svg PUBLIC "-//W3C//DTD SVG 1.1//EN" "http://www.w3.org/Graphics/SVG/1.1/DTD/svg11.dtd">
<svg version="1.1" id="Layer_1" xmlns="http://www.w3.org/2000/svg" xmlns:xlink="http://www.w3.org/1999/xlink" x="0px" y="0px"
	 width="41.548px" height="37.478px" viewBox="0 0 41.548 37.478" enable-background="new 0 0 41.548 37.478" xml:space="preserve">
<g>
	<g>
		<g>
			<g>
				<path fill="#282828" d="M11.925,28.262c-0.195-0.239-0.538-0.4-0.85-0.4c-0.632,0-1.152,0.544-1.152,1.166
					c0,0.295,0.127,0.575,0.339,0.783c0.211,0.202,0.514,0.349,0.813,0.349c0.292,0,0.662-0.158,0.85-0.386v0.222
					c-0.238,0.198-0.531,0.315-0.843,0.315c-0.706,0-1.32-0.588-1.32-1.296c0-0.719,0.604-1.304,1.323-1.304
					c0.306,0,0.615,0.122,0.84,0.33V28.262z"/>
				<path fill="#282828" d="M14.792,30.277h-0.185l-0.827-1.2H13.7v1.2h-0.162v-2.534h0.316c0.205,0,0.406,0.003,0.578,0.128
					c0.181,0.128,0.255,0.329,0.255,0.544c0,0.44-0.306,0.669-0.726,0.662L14.792,30.277z M13.905,28.926
					c0.158,0,0.315-0.006,0.443-0.118c0.121-0.097,0.178-0.248,0.178-0.399c0-0.188-0.087-0.376-0.269-0.457
					c-0.134-0.063-0.306-0.057-0.454-0.057H13.7v1.031H13.905z"/>
				<path fill="#282828" d="M16.483,27.895v0.921h1.021v0.151h-1.021v1.159h1.048v0.151h-1.209v-2.534h1.209v0.151H16.483z"/>
				<path fill="#282828" d="M19.417,29.444l-0.339,0.833h-0.165l1.062-2.617l1.059,2.617h-0.165l-0.34-0.833H19.417z M19.974,28.069
					l-0.497,1.224h0.991L19.974,28.069z"/>
				<path fill="#282828" d="M22.761,30.277H22.6v-2.382h-0.655v-0.151h1.472v0.151h-0.655V30.277z"/>
				<path fill="#282828" d="M25.013,30.277h-0.162v-2.534h0.162V30.277z"/>
				<path fill="#282828" d="M27.358,29.908h0.007l0.749-2.164h0.162l-0.921,2.618l-0.91-2.618h0.161L27.358,29.908z"/>
				<path fill="#282828" d="M29.621,29.444l-0.339,0.833h-0.165l1.062-2.617l1.059,2.617h-0.165l-0.339-0.833H29.621z
					 M30.178,28.069l-0.497,1.224h0.991L30.178,28.069z"/>
			</g>
			<g>
				<path fill="#282828" d="M13.414,32.255c-0.115-0.182-0.276-0.299-0.514-0.299c-0.272,0-0.478,0.219-0.478,0.484
					c0,0.265,0.252,0.376,0.457,0.473l0.484,0.252c0.191,0.121,0.289,0.275,0.289,0.504c0,0.42-0.383,0.736-0.793,0.736
					c-0.353,0-0.628-0.219-0.746-0.544l0.141-0.063c0.108,0.269,0.306,0.457,0.612,0.457c0.333,0,0.625-0.262,0.625-0.598
					c0-0.286-0.292-0.407-0.511-0.515L12.523,32.9c-0.168-0.104-0.262-0.252-0.262-0.454c0-0.376,0.269-0.642,0.648-0.642
					c0.255,0,0.498,0.138,0.619,0.356L13.414,32.255z"/>
				<path fill="#282828" d="M15.776,34.372h-0.162V31.99h-0.655v-0.151h1.472v0.151h-0.655V34.372z"/>
				<path fill="#282828" d="M19.402,31.839h0.162v1.579c0,0.258,0,0.48-0.171,0.692c-0.171,0.195-0.434,0.296-0.689,0.296
					s-0.518-0.101-0.689-0.296c-0.171-0.211-0.171-0.434-0.171-0.692v-1.579h0.162v1.532c0,0.229,0,0.47,0.131,0.639
					c0.125,0.161,0.373,0.245,0.568,0.245s0.443-0.084,0.568-0.245c0.131-0.168,0.131-0.41,0.131-0.639V31.839z"/>
				<path fill="#282828" d="M21.227,31.839h0.457c0.37,0,0.662,0.06,0.941,0.319c0.266,0.249,0.404,0.588,0.404,0.951
					c0,0.349-0.135,0.682-0.391,0.927c-0.278,0.27-0.577,0.336-0.954,0.336h-0.457V31.839z M21.681,34.221
					c0.333,0,0.608-0.067,0.85-0.306c0.215-0.215,0.336-0.504,0.336-0.806c0-0.323-0.128-0.625-0.366-0.844
					c-0.242-0.218-0.504-0.275-0.82-0.275h-0.292v2.23H21.681z"/>
				<path fill="#282828" d="M24.722,34.372h-0.162v-2.533h0.162V34.372z"/>
				<path fill="#282828" d="M28.885,33.105c0,0.712-0.601,1.3-1.314,1.3c-0.712,0-1.313-0.588-1.313-1.3s0.599-1.301,1.313-1.301
					C28.284,31.805,28.885,32.393,28.885,33.105z M26.419,33.105c0,0.625,0.521,1.149,1.152,1.149c0.628,0,1.153-0.528,1.153-1.149
					c0-0.625-0.524-1.149-1.153-1.149C26.94,31.956,26.419,32.48,26.419,33.105z"/>
			</g>
		</g>
	</g>
	<path fill="#282828" d="M27.729,6.153c-1.271-1.546-2.789-1.843-4.277-0.532c-1.369,1.206-2.49,2.692-3.646,3.973
		c-0.549-0.097-1.252-0.424-1.766-0.234c-0.306,0.113-0.476,1.048-0.429,1.591c0.168,1.971,0.307,3.956,0.628,5.902
		c-0.509-0.198-1.031-0.372-1.553-0.531c-1.919-0.584-3.886-1.044-5.787-1.667c-1.009-0.33-1.06-0.776-0.239-1.384
		c1.125-0.835,2.351-1.562,3.488-2.384c1.635-1.183,3.31-2.336,4.813-3.644c1.09-0.949,0.851-2.05-0.422-2.823
		c-0.52-0.316-1.127-0.586-1.737-0.701c-3.102-0.588-6.172-0.484-9.18,0.485c-1.583,0.51-1.827,1.27-1.226,2.921
		C6.685,7.912,7.451,8.226,8.34,8.225c0.89,0,1.388-0.457,1.759-1.171c0.214-0.411,0.672-0.897,1.12-0.999
		c1.129-0.254,2.312-0.378,3.478-0.416c0.588-0.02,1.587,0.098,1.783,0.408c0.051,0.099,0.1,0.241,0.074,0.362
		c-0.032,0.496-0.805,0.881-1.298,1.216c-1.28,0.868-2.64,1.642-3.914,2.515c-1.357,0.93-2.744,1.851-3.95,2.925
		c-1.209,1.076-1.006,1.798,0.448,2.571c0.306,0.164,0.619,0.329,0.952,0.437c1.641,0.53,3.287,1.047,4.938,1.556
		c1.084,0.335,2.178,0.649,3.268,0.972c0.308,0.109,0.275,0.315,0.094,0.432c-1.285,0.698-2.562,1.41-3.858,2.091
		c-0.859,0.451-1.782,0.81-2.608,1.302c-0.608,0.363-1.122,0.932-0.657,1.623c0.457,0.681,1.216,0.416,1.81,0.153
		c1.533-0.678,3.089-1.338,4.525-2.16c0.96-0.549,1.87-1.185,2.728-1.864c0.352,1.104,0.782,2.186,1.31,3.196
		c1.226,2.351,3.469,2.729,5.678,1.265c1.223-0.812,1.989-1.988,2.577-3.285c1.402-3.095,1.571-6.36,1.196-9.673
		C29.562,9.679,29.048,7.759,27.729,6.153z M26.769,21.631c-1.832,2.397-3.564,2.125-4.744-0.503
		c-1.153-2.571-1.352-5.36-1.288-8.12c0.02-0.857,0.705-1.813,1.324-2.514c0.758-0.858,1.688-1.635,2.687-2.188
		c1.026-0.567,1.833-0.22,2.498,0.764c1.187,1.757,1.415,3.76,1.427,5.619C28.63,17.301,28.282,19.65,26.769,21.631z M33.962,4.941
		c0.103-0.667,0.005-1.292-0.75-1.508c-0.718-0.206-1.277,0.13-1.68,0.712c0,0-0.301,0.51-0.346,2.753
		c-0.115,1.794-0.279,3.469-0.318,5.148c-0.079,3.354-0.09,6.71-0.128,10.065c-0.008,0.734,0.46,1.032,1.087,0.996
		c0.632-0.037,1.154-0.299,1.066-1.113c-0.049-0.471-0.045-0.95-0.04-1.425C32.915,15.338,33.163,10.12,33.962,4.941z"/>
</g>
</svg>
