<?xml version="1.0" encoding="UTF-8" standalone="no"?>
<!-- Generator: Adobe Illustrator 19.0.0, SVG Export Plug-In . SVG Version: 6.00 Build 0)  -->
<svg id="Layer_1" style="enable-background:new 0 0 64.8 64.8" xmlns="http://www.w3.org/2000/svg" xml:space="preserve" viewBox="0 0 64.8 64.8" version="1.1" y="0px" x="0px" xmlns:xlink="http://www.w3.org/1999/xlink">
<style type="text/css">
	.st0{fill:#FFFFFF;}
</style>
	<path class="st0" d="m53.1 2.5h-41.8c-4.3 0-7.7 3.5-7.7 7.7v41.8c0 4.3 3.5 7.7 7.7 7.7h20.6v-20.4h-5.3c-0.7 0-1.3-0.6-1.3-1.2v-6.6c0-0.7 0.6-1.3 1.3-1.3h5.3v-6.4c0-7.4 4.5-11.4 11.1-11.4h5.4c0.7 0 1.3 0.6 1.3 1.3v5.6c0 0.7-0.6 1.3-1.3 1.3h-3.3c-3.6 0-4.3 1.7-4.3 4.2v5.5h7.9c0.8 0 1.3 0.7 1.2 1.4l-0.8 6.6c-0.1 0.6-0.6 1.1-1.2 1.1h-7.1v20.4h12.3c4.3 0 7.7-3.5 7.7-7.7v-41.9c0-4.2-3.5-7.7-7.7-7.7z"/>
	<path class="st0" d="m185.2 2h-23.2c-9.5 0-17.2 7.7-17.2 17.2v23.3c0 9.5 7.7 17.2 17.2 17.2h23.3c9.5 0 17.2-7.7 17.2-17.2v-23.3c-0.1-9.5-7.8-17.2-17.3-17.2zm11.4 40.5c0 6.3-5.1 11.4-11.4 11.4h-23.2c-6.3 0-11.4-5.1-11.4-11.4v-23.3c0-6.3 5.1-11.4 11.4-11.4h23.3c6.3 0 11.4 5.1 11.4 11.4v23.3z"/>
	<path class="st0" d="m173.6 15.9c-8.2 0-14.9 6.7-14.9 14.9s6.7 14.9 14.9 14.9 14.9-6.7 14.9-14.9-6.7-14.9-14.9-14.9zm0 24c-5 0-9.1-4.1-9.1-9.1s4.1-9.1 9.1-9.1 9.1 4.1 9.1 9.1c0 5.1-4.1 9.1-9.1 9.1z"/>
	<path class="st0" d="m192.1 16c0 2-1.6 3.6-3.6 3.6s-3.6-1.6-3.6-3.6 1.6-3.6 3.6-3.6c2 0.1 3.6 1.7 3.6 3.6z"/>
		<path class="st0" d="m339.7-59.2c0.6-19.9-15.5-36.1-35.3-35.9-19.1 0.3-34.5 16-34.3 35.1 0.1 13.7 8.1 25.5 19.6 31.1 0.7 0.3 1.4-0.2 1.4-0.9-0.1-2.2 0-4.6 0.4-6.6 0.4-1.9 2.2-9.2 3.3-14 0.6-2.3 0.6-4.8 0.2-7.1-0.1-0.8-0.3-1.7-0.3-2.7 0-5.1 3-9 6.7-9 3.2 0 4.7 2.4 4.7 5.2 0 3.2-2 7.9-3.1 12.3-0.9 3.7 1.8 6.7 5.5 6.7 6.6 0 11.6-6.9 11.6-17 0-8.9-6.4-15.1-15.5-15.1-10.5 0-16.7 7.9-16.7 16.1 0 3.2 1.2 6.6 2.8 8.4 0.3 0.4 0.3 0.7 0.3 1.1-0.3 1.2-0.9 3.7-1 4.2-0.2 0.7-0.5 0.8-1.2 0.5-4.6-2.2-7.5-8.9-7.5-14.3 0-11.7 8.5-22.4 24.5-22.4 12.8 0 22.8 9.2 22.8 21.4 0 12.8-8 23-19.2 23-3 0-5.8-1.2-7.4-2.8-0.5-0.5-1.4-0.3-1.5 0.4-0.6 2.2-1.5 5.8-1.8 7-0.5 2.1-1.7 4.5-2.9 6.7-0.3 0.6 0 1.3 0.6 1.4 2.8 0.7 5.8 1.1 8.9 1.1 18.2-0.3 33.9-15.7 34.4-33.9z"/>
		<path class="st0" d="m272.3 10.7c-1.5 0.6-3 1.2-4.5 1.5 1.7-1.6 3-3.6 3.7-5.9 0.2-0.6-0.5-1.2-1.1-0.9-2.2 1.3-4.5 2.2-6.9 2.8-0.1 0-0.3 0.1-0.4 0.1-0.4 0-0.9-0.2-1.2-0.5-2.6-2.3-5.9-3.5-9.3-3.5-1.5 0-3 0.2-4.5 0.7-4.6 1.4-8.1 5.2-9.2 9.8-0.4 1.7-0.5 3.5-0.3 5.2 0 0.2-0.1 0.3-0.1 0.4-0.1 0.1-0.2 0.2-0.4 0.2-10-0.9-19-5.7-25.4-13.6-0.3-0.4-0.9-0.3-1.2 0.1-1.2 2.1-1.9 4.6-1.9 7.1 0 3.8 1.5 7.4 4.2 10-1.1-0.3-2.2-0.7-3.2-1.2-0.5-0.3-1.1 0.1-1.1 0.6-0.1 5.7 3.3 10.7 8.2 13h-0.3c-0.8 0-1.6-0.1-2.4-0.2-0.5-0.1-1 0.4-0.8 0.9 1.6 5 6 8.8 11.1 9.6-4.3 2.9-9.3 4.4-14.6 4.4h-1.6c-0.5 0-0.9 0.3-1.1 0.8-0.1 0.5 0.1 1 0.5 1.2 5.9 3.4 12.6 5.2 19.4 5.2 6 0 11.6-1.2 16.6-3.5 4.6-2.1 8.7-5.2 12.1-9.1 3.2-3.6 5.7-7.8 7.4-12.5 1.7-4.4 2.5-9.1 2.5-13.6v-0.2c0-0.7 0.3-1.4 0.9-1.9 2.2-1.8 4-3.8 5.6-6.1 0.6-0.5 0-1.2-0.7-0.9z"/>
	<path class="st0" d="m582.8-65.3c1.6-2.5 2.5-5.5 2.5-8.7-0.1-8.6-7.3-15.4-15.9-15.4h-24c-1.1 0-2 0.9-2 2v52.7c0 1.1 0.9 2 2 2h26.8c9.9 0 18.2-8 18.2-17.9 0-6-3-11.4-7.6-14.7zm-28.9-13.6h15.7c2.8 0 5.2 2.3 5.2 5.2 0 2.8-2.3 5.2-5.2 5.2h-15.7v-10.4zm18.5 35.8h-18.5v-14.9h18.5c4.1 0 7.5 3.3 7.5 7.5 0 4-3.4 7.4-7.5 7.4z"/>
	<path class="st0" d="m636.4-54.3c0-12.3-9.7-22.3-21.6-22.3s-21.6 10-21.6 22.3c0.1 12.3 9.8 22.3 21.7 22.3 7.2 0 13.9-3.7 17.9-9.9 0.5-0.8 1-1.6 1.4-2.4 0.3-0.6-0.2-1.3-0.8-1.3h-10.6c-0.2 0-0.5 0.1-0.6 0.3-2 1.9-4.5 2.9-7.2 2.9-5.3 0-9.7-3.9-10.8-9.2h30.2c1.2 0 2.1-0.9 2.1-2.1v-0.6zm-21.5-11.7c3.9 0 7.3 2.1 9.2 5.3h-18.5c2-3.2 5.4-5.3 9.3-5.3z"/>
	<path class="st0" d="m623.8-79.1h-19.1c-0.9 0-1.6-0.7-1.6-1.6v-4.8c0-0.9 0.7-1.6 1.6-1.6h19.1c0.9 0 1.6 0.7 1.6 1.6v4.8c0.1 0.9-0.7 1.6-1.6 1.6z"/>
		<path class="st0" d="m345.6 2.3h-47.1c-9.2 0-16.7 7.5-16.7 16.7v23.5c0 9.2 7.5 16.7 16.7 16.7h47.1c9.2 0 16.7-7.5 16.7-16.7v-23.4c0.1-9.3-7.4-16.8-16.7-16.8zm-11.3 29.7l-22 10.5c-0.6 0.3-1.3-0.1-1.3-0.8v-21.7c0-0.7 0.7-1.1 1.3-0.8l22 11.2c0.7 0.3 0.7 1.3 0 1.6z"/>
</svg>
