<?xml version="1.0" encoding="utf-8"?>
<!-- Generator: Adobe Illustrator 19.0.0, SVG Export Plug-In . SVG Version: 6.00 Build 0)  -->
<svg version="1.1" id="Layer_1" xmlns="http://www.w3.org/2000/svg" xmlns:xlink="http://www.w3.org/1999/xlink" x="0px" y="0px"
	 viewBox="0 0 64.8 64.8" style="enable-background:new 0 0 64.8 64.8;" xml:space="preserve">
<style type="text/css">
	.st0{fill:#FFFFFF;}
</style>
<g>
	<path class="st0" d="M123.1,2.5H81.3c-4.3,0-7.7,3.5-7.7,7.7V52c0,4.3,3.5,7.7,7.7,7.7h20.6l0-20.4h-5.3c-0.7,0-1.3-0.6-1.3-1.2
		l0-6.6c0-0.7,0.6-1.3,1.3-1.3h5.3v-6.4c0-7.4,4.5-11.4,11.1-11.4h5.4c0.7,0,1.3,0.6,1.3,1.3v5.6c0,0.7-0.6,1.3-1.3,1.3l-3.3,0
		c-3.6,0-4.3,1.7-4.3,4.2v5.5h7.9c0.8,0,1.3,0.7,1.2,1.4l-0.8,6.6c-0.1,0.6-0.6,1.1-1.2,1.1h-7.1l0,20.4h12.3c4.3,0,7.7-3.5,7.7-7.7
		V10.2C130.8,6,127.3,2.5,123.1,2.5L123.1,2.5z M123.1,2.5"/>
</g>
<g>
	<path class="st0" d="M45.2,2H22C12.5,2,4.8,9.7,4.8,19.2v23.3c0,9.5,7.7,17.2,17.2,17.2h23.3c9.5,0,17.2-7.7,17.2-17.2V19.2
		C62.4,9.7,54.7,2,45.2,2L45.2,2z M56.6,42.5c0,6.3-5.1,11.4-11.4,11.4H22c-6.3,0-11.4-5.1-11.4-11.4V19.2c0-6.3,5.1-11.4,11.4-11.4
		h23.3c6.3,0,11.4,5.1,11.4,11.4V42.5z M56.6,42.5"/>
	<path class="st0" d="M33.6,15.9c-8.2,0-14.9,6.7-14.9,14.9c0,8.2,6.7,14.9,14.9,14.9S48.5,39,48.5,30.8S41.8,15.9,33.6,15.9
		L33.6,15.9z M33.6,39.9c-5,0-9.1-4.1-9.1-9.1c0-5,4.1-9.1,9.1-9.1c5,0,9.1,4.1,9.1,9.1C42.7,35.9,38.6,39.9,33.6,39.9L33.6,39.9z
		 M33.6,39.9"/>
	<path class="st0" d="M52.1,16c0,2-1.6,3.6-3.6,3.6c-2,0-3.6-1.6-3.6-3.6c0-2,1.6-3.6,3.6-3.6C50.5,12.5,52.1,14.1,52.1,16L52.1,16z
		 M52.1,16"/>
</g>
<g>
	<g>
		<path class="st0" d="M339.7-59.2c0.6-19.9-15.5-36.1-35.3-35.9c-19.1,0.3-34.5,16-34.3,35.1c0.1,13.7,8.1,25.5,19.6,31.1
			c0.7,0.3,1.4-0.2,1.4-0.9c-0.1-2.2,0-4.6,0.4-6.6c0.4-1.9,2.2-9.2,3.3-14c0.6-2.3,0.6-4.8,0.2-7.1c-0.1-0.8-0.3-1.7-0.3-2.7
			c0-5.1,3-9,6.7-9c3.2,0,4.7,2.4,4.7,5.2c0,3.2-2,7.9-3.1,12.3c-0.9,3.7,1.8,6.7,5.5,6.7c6.6,0,11.6-6.9,11.6-17
			c0-8.9-6.4-15.1-15.5-15.1c-10.5,0-16.7,7.9-16.7,16.1c0,3.2,1.2,6.6,2.8,8.4c0.3,0.4,0.3,0.7,0.3,1.1c-0.3,1.2-0.9,3.7-1,4.2
			c-0.2,0.7-0.5,0.8-1.2,0.5c-4.6-2.2-7.5-8.9-7.5-14.3c0-11.7,8.5-22.4,24.5-22.4c12.8,0,22.8,9.2,22.8,21.4c0,12.8-8,23-19.2,23
			c-3,0-5.8-1.2-7.4-2.8c-0.5-0.5-1.4-0.3-1.5,0.4c-0.6,2.2-1.5,5.8-1.8,7c-0.5,2.1-1.7,4.5-2.9,6.7c-0.3,0.6,0,1.3,0.6,1.4
			c2.8,0.7,5.8,1.1,8.9,1.1C323.5-25.6,339.2-41,339.7-59.2L339.7-59.2z M339.7-59.2"/>
	</g>
</g>
<g>
	<g>
		<path class="st0" d="M272.3,10.7c-1.5,0.6-3,1.2-4.5,1.5c1.7-1.6,3-3.6,3.7-5.9c0.2-0.6-0.5-1.2-1.1-0.9c-2.2,1.3-4.5,2.2-6.9,2.8
			c-0.1,0-0.3,0.1-0.4,0.1c-0.4,0-0.9-0.2-1.2-0.5c-2.6-2.3-5.9-3.5-9.3-3.5c-1.5,0-3,0.2-4.5,0.7c-4.6,1.4-8.1,5.2-9.2,9.8
			c-0.4,1.7-0.5,3.5-0.3,5.2c0,0.2-0.1,0.3-0.1,0.4c-0.1,0.1-0.2,0.2-0.4,0.2c0,0,0,0,0,0c-10-0.9-19-5.7-25.4-13.6
			c-0.3-0.4-0.9-0.3-1.2,0.1c-1.2,2.1-1.9,4.6-1.9,7.1c0,3.8,1.5,7.4,4.2,10c-1.1-0.3-2.2-0.7-3.2-1.2c-0.5-0.3-1.1,0.1-1.1,0.6
			c-0.1,5.7,3.3,10.7,8.2,13c-0.1,0-0.2,0-0.3,0c-0.8,0-1.6-0.1-2.4-0.2c-0.5-0.1-1,0.4-0.8,0.9c1.6,5,6,8.8,11.1,9.6
			c-4.3,2.9-9.3,4.4-14.6,4.4l-1.6,0c-0.5,0-0.9,0.3-1.1,0.8c-0.1,0.5,0.1,1,0.5,1.2c5.9,3.4,12.6,5.2,19.4,5.2
			c6,0,11.6-1.2,16.6-3.5c4.6-2.1,8.7-5.2,12.1-9.1c3.2-3.6,5.7-7.8,7.4-12.5c1.7-4.4,2.5-9.1,2.5-13.6v-0.2c0-0.7,0.3-1.4,0.9-1.9
			c2.2-1.8,4-3.8,5.6-6.1C273.6,11.1,273,10.4,272.3,10.7L272.3,10.7z M272.3,10.7"/>
	</g>
</g>
<g>
	<path class="st0" d="M582.8-65.3c1.6-2.5,2.5-5.5,2.5-8.7c-0.1-8.6-7.3-15.4-15.9-15.4h-24c-1.1,0-2,0.9-2,2v52.7c0,1.1,0.9,2,2,2
		h26.8c9.9,0,18.2-8,18.2-17.9C590.4-56.6,587.4-62,582.8-65.3L582.8-65.3z M553.9-78.9h15.7c2.8,0,5.2,2.3,5.2,5.2
		c0,2.8-2.3,5.2-5.2,5.2h-15.7V-78.9z M572.4-43.1h-18.5V-58h18.5c4.1,0,7.5,3.3,7.5,7.5C579.9-46.5,576.5-43.1,572.4-43.1
		L572.4-43.1z M572.4-43.1"/>
	<path class="st0" d="M636.4-54.3c0-12.3-9.7-22.3-21.6-22.3c-11.9,0-21.6,10-21.6,22.3C593.3-42,603-32,614.9-32
		c7.2,0,13.9-3.7,17.9-9.9c0.5-0.8,1-1.6,1.4-2.4c0.3-0.6-0.2-1.3-0.8-1.3l-10.6,0c-0.2,0-0.5,0.1-0.6,0.3c-2,1.9-4.5,2.9-7.2,2.9
		c-5.3,0-9.7-3.9-10.8-9.2h30.2c1.2,0,2.1-0.9,2.1-2.1V-54.3z M614.9-66c3.9,0,7.3,2.1,9.2,5.3h-18.5C607.6-63.9,611-66,614.9-66
		L614.9-66z M614.9-66"/>
	<path class="st0" d="M623.8-79.1h-19.1c-0.9,0-1.6-0.7-1.6-1.6v-4.8c0-0.9,0.7-1.6,1.6-1.6h19.1c0.9,0,1.6,0.7,1.6,1.6v4.8
		C625.5-79.8,624.7-79.1,623.8-79.1L623.8-79.1z M623.8-79.1"/>
</g>
<g>
	<g>
		<path class="st0" d="M345.6,2.3h-47.1c-9.2,0-16.7,7.5-16.7,16.7v23.5c0,9.2,7.5,16.7,16.7,16.7h47.1c9.2,0,16.7-7.5,16.7-16.7
			V19.1C362.4,9.8,354.9,2.3,345.6,2.3L345.6,2.3z M334.3,32l-22,10.5c-0.6,0.3-1.3-0.1-1.3-0.8V20c0-0.7,0.7-1.1,1.3-0.8l22,11.2
			C335,30.7,335,31.7,334.3,32L334.3,32z M334.3,32"/>
	</g>
</g>
</svg>
