<?xml version="1.0" encoding="UTF-8" standalone="no"?>
<!-- Generator: Adobe Illustrator 21.0.0, SVG Export Plug-In . SVG Version: 6.00 Build 0)  -->
<svg id="Capa_1" style="enable-background:new 0 0 210 60" xmlns="http://www.w3.org/2000/svg" xml:space="preserve" viewBox="0 0 210 60" version="1.1" y="0px" x="0px" xmlns:xlink="http://www.w3.org/1999/xlink">
<style type="text/css">
	.st0{fill:#F6F8F8;}
</style>
		<path class="st0" d="m77.3 33.4c-0.7-0.8-1.8-1.3-2.9-1.3-2.1 0-3.9 1.8-3.9 3.9 0 1 0.4 1.9 1.1 2.6s1.7 1.2 2.7 1.2 2.2-0.5 2.9-1.3v0.7c-0.8 0.7-1.8 1.1-2.8 1.1-2.4 0-4.4-2-4.4-4.4s2-4.4 4.4-4.4c1 0 2.1 0.4 2.8 1.1v0.8h0.1z"/>
		<path class="st0" d="m86.9 40.2h-0.6l-2.8-4h-0.3v4h-0.5v-8.5h1.1c0.7 0 1.4 0 1.9 0.4 0.6 0.4 0.9 1.1 0.9 1.8 0 1.5-1 2.2-2.4 2.2l2.7 4.1zm-3-4.5c0.5 0 1.1 0 1.5-0.4 0.4-0.3 0.6-0.8 0.6-1.3 0-0.6-0.3-1.3-0.9-1.5-0.5-0.2-1-0.2-1.5-0.2h-0.3v3.5l0.6-0.1z"/>
		<path class="st0" d="m92.5 32.2v3.1h3.5v0.5h-3.4v3.9h3.5v0.5h-4.1v-8.5h4.1v0.5h-3.6z"/>
		<path class="st0" d="m102.4 37.4l-1.1 2.8h-0.6l3.6-8.8 3.6 8.8h-0.6l-1.1-2.8h-3.8zm1.9-4.6l-1.7 4.1h3.3l-1.6-4.1z"/>
		<path class="st0" d="m113.6 40.2h-0.5v-8h-2.2v-0.5h4.9v0.5h-2.2v8z"/>
		<path class="st0" d="m121.2 40.2h-0.5v-8.5h0.5v8.5z"/>
		<path class="st0" d="m129 39l2.5-7.3h0.5l-3.1 8.8-3.1-8.8h0.5l2.7 7.3z"/>
		<path class="st0" d="m136.6 37.4l-1.1 2.8h-0.6l3.6-8.8 3.6 8.8h-0.6l-1.1-2.8h-3.8zm1.9-4.6l-1.7 4.1h3.3l-1.6-4.1z"/>
		<path class="st0" d="m158.1 33.1c-0.4-0.6-0.9-1-1.7-1-0.9 0-1.6 0.7-1.6 1.6s0.8 1.3 1.5 1.6l1.6 0.8c0.6 0.4 1 0.9 1 1.7 0 1.4-1.3 2.5-2.7 2.5-1.2 0-2.1-0.7-2.5-1.8l0.5-0.2c0.4 0.9 1 1.5 2.1 1.5s2.1-0.9 2.1-2c0-1-1-1.4-1.7-1.7l-1.5-0.8c-0.6-0.3-0.9-0.8-0.9-1.5 0-1.3 0.9-2.2 2.2-2.2 0.9 0 1.7 0.5 2.1 1.2l-0.5 0.3z"/>
		<path class="st0" d="m166 40.2h-0.5v-8h-2.2v-0.5h4.9v0.5h-2.2v8z"/>
		<path class="st0" d="m178.2 31.7h0.5v5.3c0 0.9 0 1.6-0.6 2.3s-1.5 1-2.3 1c-0.9 0-1.7-0.3-2.3-1s-0.6-1.5-0.6-2.3v-5.3h0.5v5.1c0 0.8 0 1.6 0.4 2.1s1.3 0.8 1.9 0.8c0.7 0 1.5-0.3 1.9-0.8 0.4-0.6 0.4-1.4 0.4-2.1v-5.1h0.2z"/>
		<path class="st0" d="m184.3 31.7h1.5c1.2 0 2.2 0.2 3.2 1.1 0.9 0.8 1.4 2 1.4 3.2s-0.5 2.3-1.3 3.1c-0.9 0.9-1.9 1.1-3.2 1.1h-1.5l-0.1-8.5zm1.5 8c1.1 0 2-0.2 2.9-1 0.7-0.7 1.1-1.7 1.1-2.7 0-1.1-0.4-2.1-1.2-2.8s-1.7-0.9-2.8-0.9h-1v7.5l1-0.1z"/>
		<path class="st0" d="m196 40.2h-0.5v-8.5h0.5v8.5z"/>
		<path class="st0" d="m210 36c0 2.4-2 4.4-4.4 4.4s-4.4-2-4.4-4.4c0-2.4 2-4.4 4.4-4.4s4.4 2 4.4 4.4zm-8.3 0c0 2.1 1.7 3.9 3.9 3.9 2.1 0 3.9-1.8 3.9-3.9s-1.8-3.9-3.9-3.9-3.9 1.8-3.9 3.9z"/>
<path class="st0" d="m47.7 17.8c-2.7-3.3-5.9-3.9-9.1-1.1-2.9 2.6-5.3 5.7-7.8 8.5-1.2-0.2-2.7-0.9-3.8-0.5-0.7 0.2-1 2.2-0.9 3.4 0.4 4.2 0.7 8.4 1.3 12.6-1.1-0.4-2.2-0.8-3.3-1.1-4.1-1.2-8.3-2.2-12.3-3.5-2.1-0.7-2.3-1.7-0.5-2.9 2.4-1.8 5-3.3 7.4-5.1 3.5-2.5 7-5 10.2-7.8 2.3-2 1.8-4.4-0.9-6-1.1-0.7-2.4-1.2-3.7-1.5-6.6-1.3-13.1-1-19.5 1-3.2 1-3.8 2.6-2.5 6.1 0.6 1.7 2.2 2.3 4.1 2.3s3-1 3.7-2.5c0.5-0.9 1.4-1.9 2.4-2.1 2.5-0.5 5-0.8 7.5-0.9 1.3 0 3.4 0.2 3.8 0.9 0.1 0.2 0.2 0.5 0.2 0.8-0.1 1.1-1.7 1.9-2.8 2.6-2.7 1.8-5.6 3.5-8.3 5.4-2.9 2-5.8 3.9-8.4 6.2s-2.1 3.8 1 5.5c0.7 0.3 1.3 0.7 2 0.9l10.5 3.3c2.3 0.7 4.6 1.4 7 2.1 0.7 0.2 0.6 0.7 0.2 0.9-2.7 1.5-5.5 3-8.2 4.4-1.8 1-3.8 1.7-5.6 2.8-1.3 0.8-2.4 2-1.4 3.5s2.6 0.9 3.9 0.3c3.3-1.4 6.6-2.8 9.6-4.6 2-1.2 4-2.5 5.8-4 0.7 2.3 1.7 4.7 2.8 6.8 2.6 5 7.4 5.8 12.1 2.7 2.6-1.7 4.2-4.2 5.5-7 3-6.6 3.3-13.5 2.5-20.6-0.6-4.3-1.7-8.4-4.5-11.8zm-2 33c-3.9 5.1-7.6 4.5-10.1-1.1-2.5-5.5-2.9-11.4-2.7-17.3 0-1.8 1.5-3.9 2.8-5.4 1.6-1.8 3.6-3.5 5.7-4.7 2.2-1.2 3.9-0.5 5.3 1.6 2.5 3.7 3 8 3 12-0.1 5.6-0.8 10.6-4 14.9zm15.3-35.6c0.2-1.4 0-2.7-1.6-3.2-1.5-0.4-2.7 0.3-3.6 1.5 0 0-0.6 1.1-0.7 5.9-0.2 3.8-0.6 7.4-0.7 11-0.2 7.1-0.2 14.3-0.3 21.4 0 1.6 1 2.2 2.3 2.1s2.5-0.6 2.3-2.4c-0.1-1-0.1-2-0.1-3 0.1-11.1 0.7-22.2 2.4-33.3z"/>
</svg>
