<?xml version="1.0" encoding="UTF-8" standalone="no"?>
<!-- Generator: Adobe Illustrator 19.0.0, SVG Export Plug-In . SVG Version: 6.00 Build 0)  -->
<svg id="Layer_1" style="enable-background:new 0 0 612 719" xmlns="http://www.w3.org/2000/svg" xml:space="preserve" viewBox="0 0 612 719" version="1.1" y="0px" x="0px" xmlns:xlink="http://www.w3.org/1999/xlink">
<style type="text/css">
	.st0{fill:#FFFFFF;}
</style>
		<path class="st0" d="m459.2 80.2c-26.2-31.8-57.4-38-88.1-11-28.2 24.8-51.3 55.5-75.1 81.8-11.3-2-25.8-8.7-36.4-4.8-6.3 2.3-9.8 21.6-8.8 32.8 3.5 40.6 6.3 81.5 12.9 121.5-10.5-4.1-21.2-7.7-32-10.9-39.5-12-80-21.5-119.2-34.3-20.8-6.8-21.8-16-4.9-28.5 23.2-17.2 48.4-32.1 71.8-49.1 33.7-24.3 68.2-48.1 99.1-75 22.5-19.5 17.5-42.2-8.7-58.1-10.7-6.5-23.2-12.1-35.8-14.4-63.9-12.1-127.1-10-189 10-32.5 10.4-37.5 26-25.2 60 5.9 16.2 21.7 22.7 40 22.7s28.6-9.4 36.2-24.1c4.4-8.5 13.8-18.5 23.1-20.6 23.2-5.2 47.6-7.8 71.6-8.6 12.1-0.4 32.7 2 36.7 8.4 1.1 2 2.1 5 1.5 7.4-0.6 10.2-16.6 18.2-26.7 25.1-26.4 17.9-54.4 33.8-80.6 51.8-28 19.2-56.5 38.1-81.4 60.2-24.9 22.2-20.7 37 9.2 53 6.3 3.4 12.7 6.8 19.6 9 33.8 10.9 67.7 21.6 101.7 32 22.3 6.9 44.9 13.4 67.3 20 6.3 2.3 5.7 6.5 1.9 8.9-26.5 14.4-52.7 29-79.5 43.1-17.7 9.3-36.7 16.7-53.7 26.8-12.5 7.5-23.1 19.2-13.5 33.4 9.4 14 25.1 8.6 37.3 3.1 31.6-14 63.6-27.6 93.2-44.5 19.8-11.3 38.5-24.4 56.2-38.4 7.3 22.7 16.1 45 27 65.8 25.3 48.4 71.4 56.2 116.9 26 25.2-16.7 41-40.9 53.1-67.7 28.9-63.7 32.4-131 24.6-199.2-4.6-40.9-15.2-80.5-42.3-113.6zm-19.8 318.8c-37.7 49.4-73.4 43.8-97.7-10.4-23.7-52.9-27.8-110.4-26.5-167.2 0.4-17.7 14.5-37.4 27.3-51.8 15.6-17.7 34.8-33.7 55.3-45.1 21.1-11.7 37.8-4.5 51.4 15.7 24.4 36.2 29.1 77.4 29.4 115.7-0.9 53.9-8.1 102.3-39.2 143.1zm148.1-343.7c2.1-13.7 0.1-26.6-15.5-31.1-14.8-4.2-26.3 2.7-34.6 14.7 0 0-6.2 10.5-7.1 56.7-2.4 37-5.8 71.4-6.6 106-1.6 69.1-1.8 138.2-2.6 207.3-0.2 15.1 9.5 21.3 22.4 20.5 13-0.7 23.8-6.2 22-22.9-1-9.7-0.9-19.6-0.8-29.3 1.3-107.8 6.4-215.3 22.8-321.9z"/>
		<path class="st0" d="m133.5 642.2c-2.7-4.3-6.5-7.1-12.2-7.1-6.4 0-11.3 5.2-11.3 11.4 0 6.3 6 8.9 10.8 11.2l11.4 6c4.5 2.9 6.8 6.5 6.8 11.9 0 9.9-9.1 17.4-18.7 17.4-8.3 0-14.9-5.2-17.6-12.9l3.3-1.5c2.5 6.4 7.2 10.8 14.5 10.8 7.9 0 14.8-6.2 14.8-14.1 0-6.8-6.9-9.6-12.1-12.2l-10.8-5.7c-4-2.5-6.2-6-6.2-10.7 0-8.9 6.4-15.2 15.3-15.2 6 0 11.8 3.3 14.6 8.4l-2.6 2.3z"/>
		<path class="st0" d="m189.3 692.3h-3.8v-56.3h-15.5v-3.6h34.8v3.6h-15.5v56.3z"/>
		<path class="st0" d="m275 632.4h3.8v37.3c0 6.1 0 11.4-4.1 16.4-4.1 4.6-10.2 7-16.3 7-6 0-12.2-2.4-16.3-7-4-5-4-10.2-4-16.4v-37.3h3.8v36.2c0 5.4 0 11.1 3.1 15.1 2.9 3.8 8.8 5.8 13.4 5.8s10.5-2 13.4-5.8c3.1-4 3.1-9.7 3.1-15.1v-36.2z"/>
		<path class="st0" d="m318.1 632.4h10.8c8.7 0 15.7 1.4 22.2 7.5 6.3 5.9 9.5 13.9 9.5 22.5 0 8.3-3.2 16.1-9.2 21.9-6.6 6.4-13.7 7.9-22.6 7.9h-10.8v-59.8zm10.7 56.3c7.9 0 14.4-1.6 20.1-7.2 5.1-5.1 7.9-11.9 7.9-19.1 0-7.6-3-14.8-8.7-19.9-5.7-5.2-11.9-6.5-19.4-6.5h-6.9v52.7h7z"/>
		<path class="st0" d="m400.7 692.3h-3.8v-59.9h3.8v59.9z"/>
		<path class="st0" d="m499.1 662.3c0 16.8-14.2 30.7-31.1 30.7-16.8 0-31.1-13.9-31.1-30.7s14.1-30.7 31.1-30.7c16.9 0 31.1 13.9 31.1 30.7zm-58.3 0c0 14.8 12.3 27.2 27.2 27.2s27.2-12.5 27.2-27.2c0-14.8-12.4-27.2-27.2-27.2-14.9 0.1-27.2 12.5-27.2 27.2z"/>
			<path class="st0" d="m98.4 549.1c-4.6-5.6-12.7-9.5-20.1-9.5-14.9 0-27.2 12.9-27.2 27.6 0 7 3 13.6 8 18.5 5 4.8 12.2 8.3 19.2 8.3 6.9 0 15.6-3.7 20.1-9.1v5.2c-5.6 4.7-12.6 7.5-19.9 7.5-16.7 0-31.2-13.9-31.2-30.7 0-17 14.3-30.8 31.3-30.8 7.2 0 14.5 2.9 19.9 7.8v5.2z"/>
			<path class="st0" d="m166.1 596.7h-4.4l-19.5-28.4h-1.9v28.4h-3.8v-59.9h7.5c4.8 0 9.6 0.1 13.7 3 4.3 3 6 7.8 6 12.9 0 10.4-7.2 15.8-17.2 15.7l19.6 28.3zm-21-31.9c3.7 0 7.5-0.2 10.5-2.8 2.9-2.3 4.2-5.9 4.2-9.5 0-4.4-2.1-8.9-6.4-10.8-3.2-1.5-7.2-1.3-10.7-1.3h-2.5v24.4h4.9z"/>
			<path class="st0" d="m206 540.4v21.8h24.2v3.6h-24.2v27.4h24.8v3.6h-28.6v-59.9h28.6v3.6h-24.8z"/>
			<path class="st0" d="m275.3 577l-8 19.7h-3.9l25.1-61.9 25 61.9h-3.9l-8-19.7h-26.3zm13.2-32.5l-11.8 28.9h23.4l-11.6-28.9z"/>
			<path class="st0" d="m354.4 596.7h-3.8v-56.3h-15.5v-3.6h34.8v3.6h-15.5v56.3z"/>
			<path class="st0" d="m407.6 596.7h-3.8v-59.9h3.8v59.9z"/>
			<path class="st0" d="m463 588h0.2l17.7-51.2h3.8l-21.8 61.9-21.5-61.9h3.8l17.8 51.2z"/>
			<path class="st0" d="m516.4 577l-8 19.7h-3.9l25.1-61.9 25 61.9h-3.9l-8-19.7h-26.3zm13.2-32.5l-11.8 28.9h23.4l-11.6-28.9z"/>
</svg>
