<?xml version="1.0" encoding="utf-8"?>
<!-- Generator: Adobe Illustrator 19.0.0, SVG Export Plug-In . SVG Version: 6.00 Build 0)  -->
<svg version="1.1" id="Layer_1" xmlns="http://www.w3.org/2000/svg" xmlns:xlink="http://www.w3.org/1999/xlink" x="0px" y="0px"
	 viewBox="0 0 612 719" style="enable-background:new 0 0 612 719;" xml:space="preserve">
<style type="text/css">
	.st0{fill:#FFFFFF;}
</style>
<g>
	<g>
		<path class="st0" d="M459.2,80.2c-26.2-31.8-57.4-38-88.1-11c-28.2,24.8-51.3,55.5-75.1,81.8c-11.3-2-25.8-8.7-36.4-4.8
			c-6.3,2.3-9.8,21.6-8.8,32.8c3.5,40.6,6.3,81.5,12.9,121.5c-10.5-4.1-21.2-7.7-32-10.9c-39.5-12-80-21.5-119.2-34.3
			c-20.8-6.8-21.8-16-4.9-28.5c23.2-17.2,48.4-32.1,71.8-49.1c33.7-24.3,68.2-48.1,99.1-75c22.5-19.5,17.5-42.2-8.7-58.1
			c-10.7-6.5-23.2-12.1-35.8-14.4c-63.9-12.1-127.1-10-189,10C12.5,50.6,7.5,66.2,19.8,100.2c5.9,16.2,21.7,22.7,40,22.7
			c18.3,0,28.6-9.4,36.2-24.1c4.4-8.5,13.8-18.5,23.1-20.6c23.2-5.2,47.6-7.8,71.6-8.6c12.1-0.4,32.7,2,36.7,8.4
			c1.1,2,2.1,5,1.5,7.4c-0.6,10.2-16.6,18.2-26.7,25.1c-26.4,17.9-54.4,33.8-80.6,51.8c-28,19.2-56.5,38.1-81.4,60.2
			c-24.9,22.2-20.7,37,9.2,53c6.3,3.4,12.7,6.8,19.6,9c33.8,10.9,67.7,21.6,101.7,32c22.3,6.9,44.9,13.4,67.3,20
			c6.3,2.3,5.7,6.5,1.9,8.9c-26.5,14.4-52.7,29-79.5,43.1c-17.7,9.3-36.7,16.7-53.7,26.8c-12.5,7.5-23.1,19.2-13.5,33.4
			c9.4,14,25.1,8.6,37.3,3.1c31.6-14,63.6-27.6,93.2-44.5c19.8-11.3,38.5-24.4,56.2-38.4c7.3,22.7,16.1,45,27,65.8
			c25.3,48.4,71.4,56.2,116.9,26c25.2-16.7,41-40.9,53.1-67.7c28.9-63.7,32.4-131,24.6-199.2C496.9,152.9,486.3,113.3,459.2,80.2z
			 M439.4,399c-37.7,49.4-73.4,43.8-97.7-10.4c-23.7-52.9-27.8-110.4-26.5-167.2c0.4-17.7,14.5-37.4,27.3-51.8
			c15.6-17.7,34.8-33.7,55.3-45.1c21.1-11.7,37.8-4.5,51.4,15.7c24.4,36.2,29.1,77.4,29.4,115.7C477.7,309.8,470.5,358.2,439.4,399z
			 M587.5,55.3c2.1-13.7,0.1-26.6-15.5-31.1c-14.8-4.2-26.3,2.7-34.6,14.7c0,0-6.2,10.5-7.1,56.7c-2.4,37-5.8,71.4-6.6,106
			c-1.6,69.1-1.8,138.2-2.6,207.3c-0.2,15.1,9.5,21.3,22.4,20.5c13-0.7,23.8-6.2,22-22.9c-1-9.7-0.9-19.6-0.8-29.3
			C566,269.4,571.1,161.9,587.5,55.3z"/>
	</g>
	<g>
		<path class="st0" d="M133.5,642.2c-2.7-4.3-6.5-7.1-12.2-7.1c-6.4,0-11.3,5.2-11.3,11.4c0,6.3,6,8.9,10.8,11.2l11.4,6
			c4.5,2.9,6.8,6.5,6.8,11.9c0,9.9-9.1,17.4-18.7,17.4c-8.3,0-14.9-5.2-17.6-12.9l3.3-1.5c2.5,6.4,7.2,10.8,14.5,10.8
			c7.9,0,14.8-6.2,14.8-14.1c0-6.8-6.9-9.6-12.1-12.2l-10.8-5.7c-4-2.5-6.2-6-6.2-10.7c0-8.9,6.4-15.2,15.3-15.2
			c6,0,11.8,3.3,14.6,8.4L133.5,642.2z"/>
		<path class="st0" d="M189.3,692.3h-3.8V636H170v-3.6h34.8v3.6h-15.5V692.3z"/>
		<path class="st0" d="M275,632.4h3.8v37.3c0,6.1,0,11.4-4.1,16.4c-4.1,4.6-10.2,7-16.3,7c-6,0-12.2-2.4-16.3-7c-4-5-4-10.2-4-16.4
			v-37.3h3.8v36.2c0,5.4,0,11.1,3.1,15.1c2.9,3.8,8.8,5.8,13.4,5.8c4.6,0,10.5-2,13.4-5.8c3.1-4,3.1-9.7,3.1-15.1V632.4z"/>
		<path class="st0" d="M318.1,632.4h10.8c8.7,0,15.7,1.4,22.2,7.5c6.3,5.9,9.5,13.9,9.5,22.5c0,8.3-3.2,16.1-9.2,21.9
			c-6.6,6.4-13.7,7.9-22.6,7.9h-10.8V632.4z M328.8,688.7c7.9,0,14.4-1.6,20.1-7.2c5.1-5.1,7.9-11.9,7.9-19.1c0-7.6-3-14.8-8.7-19.9
			c-5.7-5.2-11.9-6.5-19.4-6.5h-6.9v52.7H328.8z"/>
		<path class="st0" d="M400.7,692.3h-3.8v-59.9h3.8V692.3z"/>
		<path class="st0" d="M499.1,662.3c0,16.8-14.2,30.7-31.1,30.7c-16.8,0-31.1-13.9-31.1-30.7s14.1-30.7,31.1-30.7
			C484.9,631.6,499.1,645.5,499.1,662.3z M440.8,662.3c0,14.8,12.3,27.2,27.2,27.2c14.9,0,27.2-12.5,27.2-27.2
			c0-14.8-12.4-27.2-27.2-27.2C453.1,635.2,440.8,647.6,440.8,662.3z"/>
	</g>
	<g>
		<g>
			<path class="st0" d="M98.4,549.1c-4.6-5.6-12.7-9.5-20.1-9.5c-14.9,0-27.2,12.9-27.2,27.6c0,7,3,13.6,8,18.5
				c5,4.8,12.2,8.3,19.2,8.3c6.9,0,15.6-3.7,20.1-9.1v5.2c-5.6,4.7-12.6,7.5-19.9,7.5c-16.7,0-31.2-13.9-31.2-30.7
				c0-17,14.3-30.8,31.3-30.8c7.2,0,14.5,2.9,19.9,7.8V549.1z"/>
			<path class="st0" d="M166.1,596.7h-4.4l-19.5-28.4h-1.9v28.4h-3.8v-59.9h7.5c4.8,0,9.6,0.1,13.7,3c4.3,3,6,7.8,6,12.9
				c0,10.4-7.2,15.8-17.2,15.7L166.1,596.7z M145.1,564.8c3.7,0,7.5-0.2,10.5-2.8c2.9-2.3,4.2-5.9,4.2-9.5c0-4.4-2.1-8.9-6.4-10.8
				c-3.2-1.5-7.2-1.3-10.7-1.3h-2.5v24.4H145.1z"/>
			<path class="st0" d="M206,540.4v21.8h24.2v3.6H206v27.4h24.8v3.6h-28.6v-59.9h28.6v3.6H206z"/>
			<path class="st0" d="M275.3,577l-8,19.7h-3.9l25.1-61.9l25,61.9h-3.9l-8-19.7H275.3z M288.5,544.5l-11.8,28.9h23.4L288.5,544.5z"
				/>
			<path class="st0" d="M354.4,596.7h-3.8v-56.3h-15.5v-3.6h34.8v3.6h-15.5V596.7z"/>
			<path class="st0" d="M407.6,596.7h-3.8v-59.9h3.8V596.7z"/>
			<path class="st0" d="M463,588h0.2l17.7-51.2h3.8l-21.8,61.9l-21.5-61.9h3.8L463,588z"/>
			<path class="st0" d="M516.4,577l-8,19.7h-3.9l25.1-61.9l25,61.9h-3.9l-8-19.7H516.4z M529.6,544.5l-11.8,28.9h23.4L529.6,544.5z"
				/>
		</g>
	</g>
</g>
</svg>
