<?xml version="1.0" encoding="utf-8"?>
<!-- Generator: Adobe Illustrator 21.0.0, SVG Export Plug-In . SVG Version: 6.00 Build 0)  -->
<svg version="1.1" id="Capa_1" xmlns="http://www.w3.org/2000/svg" xmlns:xlink="http://www.w3.org/1999/xlink" x="0px" y="0px"
	 viewBox="0 0 210 60" style="enable-background:new 0 0 210 60;" xml:space="preserve">
<style type="text/css">
	.st0{fill:#F6F8F8;}
</style>
<g>
	<g>
		<path class="st0" d="M77.3,33.4c-0.7-0.8-1.8-1.3-2.9-1.3c-2.1,0-3.9,1.8-3.9,3.9c0,1,0.4,1.9,1.1,2.6s1.7,1.2,2.7,1.2
			s2.2-0.5,2.9-1.3v0.7c-0.8,0.7-1.8,1.1-2.8,1.1c-2.4,0-4.4-2-4.4-4.4c0-2.4,2-4.4,4.4-4.4c1,0,2.1,0.4,2.8,1.1v0.8H77.3z"/>
		<path class="st0" d="M86.9,40.2h-0.6l-2.8-4h-0.3v4h-0.5v-8.5h1.1c0.7,0,1.4,0,1.9,0.4c0.6,0.4,0.9,1.1,0.9,1.8
			c0,1.5-1,2.2-2.4,2.2L86.9,40.2z M83.9,35.7c0.5,0,1.1,0,1.5-0.4C85.8,35,86,34.5,86,34c0-0.6-0.3-1.3-0.9-1.5
			c-0.5-0.2-1-0.2-1.5-0.2h-0.3v3.5L83.9,35.7L83.9,35.7z"/>
		<path class="st0" d="M92.5,32.2v3.1H96v0.5h-3.4v3.9h3.5v0.5H92v-8.5h4.1v0.5H92.5z"/>
		<path class="st0" d="M102.4,37.4l-1.1,2.8h-0.6l3.6-8.8l3.6,8.8h-0.6l-1.1-2.8C106.2,37.4,102.4,37.4,102.4,37.4z M104.3,32.8
			l-1.7,4.1h3.3L104.3,32.8z"/>
		<path class="st0" d="M113.6,40.2h-0.5v-8h-2.2v-0.5h4.9v0.5h-2.2C113.6,32.2,113.6,40.2,113.6,40.2z"/>
		<path class="st0" d="M121.2,40.2h-0.5v-8.5h0.5V40.2z"/>
		<path class="st0" d="M129,39L129,39l2.5-7.3h0.5l-3.1,8.8l-3.1-8.8h0.5L129,39z"/>
		<path class="st0" d="M136.6,37.4l-1.1,2.8h-0.6l3.6-8.8l3.6,8.8h-0.6l-1.1-2.8C140.4,37.4,136.6,37.4,136.6,37.4z M138.5,32.8
			l-1.7,4.1h3.3L138.5,32.8z"/>
		<path class="st0" d="M158.1,33.1c-0.4-0.6-0.9-1-1.7-1c-0.9,0-1.6,0.7-1.6,1.6c0,0.9,0.8,1.3,1.5,1.6l1.6,0.8c0.6,0.4,1,0.9,1,1.7
			c0,1.4-1.3,2.5-2.7,2.5c-1.2,0-2.1-0.7-2.5-1.8l0.5-0.2c0.4,0.9,1,1.5,2.1,1.5s2.1-0.9,2.1-2c0-1-1-1.4-1.7-1.7l-1.5-0.8
			c-0.6-0.3-0.9-0.8-0.9-1.5c0-1.3,0.9-2.2,2.2-2.2c0.9,0,1.7,0.5,2.1,1.2L158.1,33.1z"/>
		<path class="st0" d="M166,40.2h-0.5v-8h-2.2v-0.5h4.9v0.5H166V40.2z"/>
		<path class="st0" d="M178.2,31.7h0.5V37c0,0.9,0,1.6-0.6,2.3s-1.5,1-2.3,1c-0.9,0-1.7-0.3-2.3-1s-0.6-1.5-0.6-2.3v-5.3h0.5v5.1
			c0,0.8,0,1.6,0.4,2.1s1.3,0.8,1.9,0.8c0.7,0,1.5-0.3,1.9-0.8c0.4-0.6,0.4-1.4,0.4-2.1v-5.1H178.2z"/>
		<path class="st0" d="M184.3,31.7h1.5c1.2,0,2.2,0.2,3.2,1.1c0.9,0.8,1.4,2,1.4,3.2s-0.5,2.3-1.3,3.1c-0.9,0.9-1.9,1.1-3.2,1.1
			h-1.5L184.3,31.7L184.3,31.7z M185.8,39.7c1.1,0,2-0.2,2.9-1c0.7-0.7,1.1-1.7,1.1-2.7c0-1.1-0.4-2.1-1.2-2.8
			c-0.8-0.7-1.7-0.9-2.8-0.9h-1v7.5L185.8,39.7L185.8,39.7z"/>
		<path class="st0" d="M196,40.2h-0.5v-8.5h0.5V40.2z"/>
		<path class="st0" d="M210,36c0,2.4-2,4.4-4.4,4.4s-4.4-2-4.4-4.4c0-2.4,2-4.4,4.4-4.4S210,33.6,210,36z M201.7,36
			c0,2.1,1.7,3.9,3.9,3.9c2.1,0,3.9-1.8,3.9-3.9c0-2.1-1.8-3.9-3.9-3.9S201.7,33.9,201.7,36z"/>
	</g>
</g>
<path class="st0" d="M47.7,17.8c-2.7-3.3-5.9-3.9-9.1-1.1c-2.9,2.6-5.3,5.7-7.8,8.5c-1.2-0.2-2.7-0.9-3.8-0.5
	c-0.7,0.2-1,2.2-0.9,3.4c0.4,4.2,0.7,8.4,1.3,12.6c-1.1-0.4-2.2-0.8-3.3-1.1c-4.1-1.2-8.3-2.2-12.3-3.5c-2.1-0.7-2.3-1.7-0.5-2.9
	c2.4-1.8,5-3.3,7.4-5.1c3.5-2.5,7-5,10.2-7.8c2.3-2,1.8-4.4-0.9-6c-1.1-0.7-2.4-1.2-3.7-1.5c-6.6-1.3-13.1-1-19.5,1
	c-3.2,1-3.8,2.6-2.5,6.1c0.6,1.7,2.2,2.3,4.1,2.3s3-1,3.7-2.5c0.5-0.9,1.4-1.9,2.4-2.1c2.5-0.5,5-0.8,7.5-0.9c1.3,0,3.4,0.2,3.8,0.9
	c0.1,0.2,0.2,0.5,0.2,0.8c-0.1,1.1-1.7,1.9-2.8,2.6c-2.7,1.8-5.6,3.5-8.3,5.4c-2.9,2-5.8,3.9-8.4,6.2s-2.1,3.8,1,5.5
	c0.7,0.3,1.3,0.7,2,0.9c3.5,1.1,7,2.2,10.5,3.3c2.3,0.7,4.6,1.4,7,2.1c0.7,0.2,0.6,0.7,0.2,0.9c-2.7,1.5-5.5,3-8.2,4.4
	c-1.8,1-3.8,1.7-5.6,2.8c-1.3,0.8-2.4,2-1.4,3.5s2.6,0.9,3.9,0.3c3.3-1.4,6.6-2.8,9.6-4.6c2-1.2,4-2.5,5.8-4
	c0.7,2.3,1.7,4.7,2.8,6.8c2.6,5,7.4,5.8,12.1,2.7c2.6-1.7,4.2-4.2,5.5-7c3-6.6,3.3-13.5,2.5-20.6C51.6,25.3,50.5,21.2,47.7,17.8z
	 M45.7,50.8c-3.9,5.1-7.6,4.5-10.1-1.1c-2.5-5.5-2.9-11.4-2.7-17.3c0-1.8,1.5-3.9,2.8-5.4c1.6-1.8,3.6-3.5,5.7-4.7
	c2.2-1.2,3.9-0.5,5.3,1.6c2.5,3.7,3,8,3,12C49.6,41.5,48.9,46.5,45.7,50.8z M61,15.2c0.2-1.4,0-2.7-1.6-3.2
	c-1.5-0.4-2.7,0.3-3.6,1.5c0,0-0.6,1.1-0.7,5.9c-0.2,3.8-0.6,7.4-0.7,11c-0.2,7.1-0.2,14.3-0.3,21.4c0,1.6,1,2.2,2.3,2.1
	c1.3-0.1,2.5-0.6,2.3-2.4c-0.1-1-0.1-2-0.1-3C58.7,37.4,59.3,26.3,61,15.2z"/>
</svg>
