<?xml version="1.0" encoding="UTF-8" standalone="no"?>
<!DOCTYPE svg  PUBLIC '-//W3C//DTD SVG 1.1//EN'  'http://www.w3.org/Graphics/SVG/1.1/DTD/svg11.dtd'>
<svg id="Layer_1" style="enable-background:new 4 4 120 120" xmlns="http://www.w3.org/2000/svg" xml:space="preserve" height="120px" viewBox="4 4 120 120" width="120px" version="1.1" xmlns:xlink="http://www.w3.org/1999/xlink"><g id="mail"><path d="m118.5 27.4c-0.8-1.8-4.4-0.9-6-1.9-1.7-0.4-1.7 1.1-3.2 1-0.3-0.8-2.2 0.1-2.5-0.6h-3.2c-0.5-0.5-1.899-0.3-2.899-0.3-0.9-0.2-2.5 0.4-2.9-0.3-11.899-0.5-25.3-0.5-37.2 0-7.5 0.2-15.3 1.9-23.6 1.9-8.1 0-16.5-0.2-24.2 1-1.4 1.1-1.9 3.2-3.2 4.5-0.4 2.3-0.1 5.6-0.6 8.1 1.4 15.1 2.2 30.9 3.5 46.2 0 1.3 1.2 1.5 1.3 2.9 0.2 2.199 0.7 4.199 1.3 6 1 0.3 1.4 1.1 2.9 1 0-0.4 0.5-0.2 0 0-0.3 0.3-0.2 0.899-0.6 1-0.1 3 2.5 3.199 4.8 3.8 2.6 0.2 5 0.5 8 0.3 2.4 0.4 5.1 0.6 7.6 1h28.6c6.8-1 14.3-1.2 21-2.2 7.8 0 14.1-1.3 21.3-1.899 1.5-0.301 0.399 1.899 1.6 1.899 0.2 0.8 1 1.101 2.2 1 1.4-0.3 2-1.399 2.2-2.899 0.399-1.301 0.399-3 0.3-4.801v-10.3c0.4-6.399 0.9-12.7 1-19.4 0.7-6.1 0.3-13.2 1-19.4 0.1-3.3 0.6-6.2 1-9.2-0.2-1.9 0.5-2.9 0.6-4.5 0.2-1.5 0.9-2.9-0.1-3.9zm-97.7 6.1h21.6c8.3-0.9 16.7-1.8 26.1-1.6 0.5 0.1 0.8-0.5 1 0 0.3 0.3 1.6-0.3 1.6-0.3v0.3c1-0.1 1.301-0.2 1.9 0h0.6c0.801-0.1 1 0 2.2 0 0 0 0.101-0.4 0.3-0.3 0 0 0.101 0.3 0.301 0.3 0.6 0.1 1.8 0 2.899 0-0.1 0 0.2-0.5 0.3-0.3 0.4 0.5 1.7 0.3 2.9 0.3 2-0.1 2.3-0.1 4.5 0 7.1 0 13.9 0.3 20.1 1.3 1.301-0.1 0 0.5 0 1-0.399 0.3-1 0.5-1.3 1-0.7 0.6-1.6 1.1-2.2 1.9-1.899 0.9-3.399 2.1-5.1 3.2-3.4 2.2-6.8 4.4-9.9 7-0.8-0.3-0.6 0.6-1.3 0.6-0.5 0-0.6 0.9-1.3 1-0.3 0-1.2 0.7-1.6 1-0.301 0.2-0.801 0.5-1 1-2.101 0.7-3.2 2.4-5.101 3.2-3 2.6-6.3 4.9-9.2 7.6-2.1-1.2-4-2.6-5.7-4.1-2.2-0.8-3.8-2.2-5.7-3.2-1.6-1.2-3.6-2.1-5.1-3.5-4.1-1.7-7.5-4-11.5-5.7-7.9-3.5-15.2-7.7-22.9-11.5 0.501-1.1 1.501 0.2 2.601-0.2zm-6.1 0.3c0-0.1 0.7-0.6 1-0.3 0.2 0.2-1.3 0.9-1 0.3zm10.9 63.3c0.1-0.699 0.4-1.3 0.6-1.899 0.5 0.6 0.7 1.399 1 2.2-0.8 0.199-1.3-0.001-1.6-0.301zm12.4 0h-3.5c0.8-1.8 2-3.3 2.9-5.1 1.2 0.7 0.3 3.5 0.6 5.1zm73.8-55.3c-0.6 9.6-1.1 19.3-1.899 28.601v4.1c0.3 0.9-0.4 0.8-0.301 1.6v4.799c-0.8 3.199 0.301 8.3-1 11.1-2.399-0.2-3.899 0.6-6.399 0.3-7.8 1.6-17.3 1.5-25.1 3.2 0.3-1.9 1.6-2.7 1.9-4.5-0.2-0.9-0.5 0.5-1 0.3-0.3 0.4-0.3 1.2-1 1.3-0.2 1.2-0.9 1.9-1.3 2.9-3.101 0.3-6 0.8-9.2 1 1.3-2.4 3.4-4 4.1-7-1-0.8-1.699 0.6-2.199 1.3-0.801 0.7-1.401 1.6-1.901 2.5-0.9 0.5-1.4 1.4-2.5 1.601 0 0.8-0.5 0.899-0.3 1.899h-12.4c0-1.3 1.6-2.2 1-3.2-1.7 0.2-1.6 2.301-2.5 3.2-2.9-0.1-5.4 0.2-8 0.3-0.5-2.1-0.7-4.6-1.6-6.399-0.7-1.4 0.5-2 0-2.9-3.1 0.4-4.9 2.101-6.7 3.8-0.5-0.5-0.6-1.3-1.9-1-2.1 0.2-2.4 2-4.1 2.5 0.3-1.1 1.1-1.699 1-3.199-1.5 0.098-2.1 1.398-2.9 2.198-0.8 0.9-1.1 2.3-2.2 2.9 0 0.4-0.1 0.7-0.3 1-0.1 0.5 0.5 0.8 0 1-1.7 0-2.8-0.6-4.5-0.6 0.1-0.801 1.1-0.601 1-1.601 0.9 0 0.7 1 1.6 1 1.3-0.5 2.3-1.3 2.5-2.899 0.9-1 1.5-2.301 2.2-3.5 1.4-2.301 3-4.4 3.8-7.301-3.8 0.801-5.1 4-7.3 6.4 0 0.4-0.5 0.2 0 0 1.1-2.6 2.6-4.8 3.8-7.3 1-2.4 4-4.3 2.9-8-3.5-0.101-4.1 2.7-6 4.1-1 2.5-3 4-3.8 6.7-0.7-0.3 0-1.6 0.3-1.9-0.1-1.1 0.6-1.5 0.6-2.5 0.9-1.199 1.1-3.1 1.9-4.5 0.3-1.699 1.2-2.8 1.6-4.5 0.5-1.6 1.8-2.399 1.9-4.5-0.2-1-1.2-1.199-1.9-1.6-1.8 0.1-2.3 1.5-3.5 2.2-0.7 2.399-2.2 4-2.9 6.399-0.7-0.3-0.1-2-0.3-2.899 0.4-0.601 0.3-1.8 0.6-2.5 0-1 0.7-1.4 0.6-2.5 0.7-0.3 0.3-1.8 1-2.2 0.5-3.3 3.4-5.9 2.2-9.9-2.7-0.3-3.5 1.3-4.5 2.9-0.7-0.2-0.1-1.8-0.3-2.5-0.7-0.3-0.1-2-0.3-2.9-0.6-5-1.1-10.2-1.6-15.3 0.7 0.4 1 1.3 1.6 1.9 2.4 1.1 4.2 2.8 6.4 4.1 2.4 1.1 4.2 2.8 6.7 3.8 4.1 2.9 9.1 4.9 13.4 7.6 2.6 0.9 4.6 2.4 6.7 3.8 2.2 1.3 3.9 3.1 6.4 4.1 1.8 1.7 4.5 2.5 6 4.5 1.4 0.5 2.1 1.5 3.2 2.2 1.601 0.2 2.301 1.3 4.5 1 1.3-0.399 2.1-1.299 2.5-2.499 2-0.7 3.301-2.3 5.101-3.2 1.3-1.5 3.5-2.3 4.8-3.8 2.1-0.7 3.2-2.4 5.1-3.2 1.601-1.3 3.4-2.3 5.101-3.5 6.2-5.2 14-8.7 19.7-14.3 0.6 0.9 0.2 3.1-0.1 4zm-91.3 49.3c0.6 0.301-0.2 1.9-1 1.9-0.3-1.3 0.5-1.4 1-1.9zm93.2-59.5c0.1-0.4 0.3-0.2 0.3 0 0 0.3-0.3 0.1-0.3 0z"/></g></svg>
