<?xml version="1.0" encoding="utf-8"?>
<!-- Generator: Adobe Illustrator 16.0.0, SVG Export Plug-In . SVG Version: 6.00 Build 0)  -->
<!DOCTYPE svg PUBLIC "-//W3C//DTD SVG 1.1//EN" "http://www.w3.org/Graphics/SVG/1.1/DTD/svg11.dtd">
<svg version="1.1" id="Capa_1" xmlns="http://www.w3.org/2000/svg" xmlns:xlink="http://www.w3.org/1999/xlink" x="0px" y="0px"
	 width="792px" height="1081.5px" viewBox="212.5 -281.5 792 1081.5" enable-background="new 212.5 -281.5 792 1081.5"
	 xml:space="preserve">
<path fill="#FFFFFF" d="M642.342,675.771c-0.692,0.828-1.385,1.656-2.071,2.498l3.272,2.672
	c5.356,21.66,14.317,41.041,26.859,57.531c26.26,34.525,66.074,53.54,112.11,53.54c15.601,0,31.724-2.21,47.919-6.566
	c41.169-11.075,79.567-52.226,108.124-115.87c24.5-54.604,39.127-119.546,39.127-173.718l0.001-5.917
	c0.023-71.801,0.063-191.974-30.567-358.257C936.479,73.938,917.543,32.61,890.834,8.847C871.637-8.234,848.49-16.539,820.072-16.54
	c-0.002,0-0.004,0-0.007,0c-6.024,0-11.427,0.33-16.191,0.621c-1.812,0.11-3.522,0.216-5.121,0.29
	c-18.479,0.866-45.729,4.565-68.947,26.595C702.526,36.848,688.23,81.5,687.316,143.682c-0.355,24.122-0.334,47.341-0.313,69.795
	c0.099,106.289,0.183,198.084-37.253,333.177C636.549,594.294,634.196,638.284,642.342,675.771z M824.197,762.271
	c-14.164,3.81-28.188,5.742-41.685,5.742c-38.362,0-71.394-15.651-93.008-44.069c-9.203-12.1-16.138-26.147-20.803-41.809
	c63.262-68.227,129.672-54.767,156.201-45.313c19.426,6.922,37.042,18.25,49.603,31.897c10.854,11.791,17.147,24.357,17.928,35.671
	C871.728,735.7,848.273,755.793,824.197,762.271z M908.77,676.219c-12.918-25.879-40.913-49.57-75.811-62.005
	c-17.298-6.163-35.232-9.258-53.175-9.257c-13.872,0-27.75,1.85-41.336,5.562c-27.274,7.45-52.56,22.005-75.479,43.392
	c-2.268-19.184-1.753-40.112,1.614-62.383c5.021,0.622,10.518,1.646,16.214,2.713c13.085,2.453,26.613,4.989,39.182,3.572
	c16.688-1.883,28.271-10.424,34.433-25.386c3.713-9.016,6.813-24.693,9.549-45.616c12.333,6.173,28.571,9.366,48.18,9.366
	c13.169,0,24.271-1.426,28.94-2.128c2.139,15.897,6.108,28.007,12.579,35.739c4.963,5.931,11.4,9.397,18.616,10.025
	c30.305,2.636,54.219,15.771,65.054,22.772c-5.657,19.817-12.623,39.23-20.67,57.165
	C914.102,665.451,911.467,670.937,908.77,676.219z M776.756,368.324c0.471-7.542,0.934-14.954,1.391-22.142l3.917-53.453
	c5.338-6.942,18.877-11.978,32.892-11.978c0.001,0,0.004,0,0.005,0c11.56,0.001,21.588,3.241,27.9,8.95
	c1.073,5.802,2.612,29.142-4.239,121.961c-3.066,41.54-6.706,81.788-8.357,99.555c-4.802,0.495-11.158,0.959-18.124,0.959
	c-21.447,0-37.224-4.287-45.133-12.154C770.574,464.429,773.583,419.153,776.756,368.324z M854.248,268.183
	c-10.406-7.334-24.211-11.429-39.286-11.431c-0.004,0-0.004,0-0.008,0c-13.018,0-25.145,2.836-34.993,7.83
	c-3.388-18.255-10.814-29.763-18.084-41.014c-10.016-15.499-19.475-30.139-18.565-67.417c2.094-85.845,8.306-109.097,48.015-109.135
	l1.279-0.001c34.246-0.039,54.93-0.055,67.855,10.381c13.101,10.576,22.154,34.358,32.294,84.825
	c14.11,70.229-1.763,84.214-17.114,97.738C867.564,247.075,858.782,254.813,854.248,268.183z M711.003,213.454
	c-0.021-22.361-0.042-45.484,0.311-69.419C713.25,12.406,776.185,9.456,799.877,8.345c1.704-0.079,3.529-0.19,5.461-0.309
	c4.422-0.271,9.435-0.576,14.727-0.576c0.002,0,0.005,0,0.008,0c21.813,0.001,79.758,0.004,103.441,128.572
	c30.232,164.124,30.193,282.921,30.17,353.901l-0.001,5.925c0,25.304-3.609,53.81-10.11,82.38
	c-14.674-8.518-39.065-19.713-69.218-22.335c-0.411-0.036-1.1-0.096-2.29-1.518c-3.577-4.275-9.51-18.024-9.049-62.08
	c0.334-31.907,3.873-70.935,6.996-105.367c3.54-39.038,6.597-72.752,5.279-93.829c-1.235-19.769,5.333-25.555,16.215-35.142
	c8.975-7.907,20.145-17.748,26.188-36.675c6.46-20.234,6.013-46.862-1.408-83.798c-11.664-58.054-22.326-83.9-40.748-98.772
	c-18.591-15.009-42.337-15.711-77.51-15.711c-1.784,0-3.603,0.002-5.446,0.004l-1.277,0.001
	c-30.846,0.029-50.004,11.842-60.293,37.174c-9.215,22.688-10.747,56.616-11.692,95.375c-1.09,44.676,11.39,63.988,22.4,81.028
	c10.232,15.837,18.315,28.346,15.633,62.32c-1.035,13.118-2.076,28.754-3.148,45.621l-11.59,158.183
	c-2.95,28.238-6.371,50.8-10.395,60.571c-5.572,13.533-19.254,12.564-47,7.362c-5.34-1.001-10.771-2.013-16.102-2.73
	c1.131-4.902,2.375-9.853,3.762-14.858C711.189,414.813,711.099,317.005,711.003,213.454z"/>
<path fill="#FFFFFF" d="M594.065,298.653c-37.436-135.093-37.352-226.888-37.254-333.177c0.021-22.454,0.043-45.673-0.313-69.795
	c-0.914-62.182-15.21-106.834-42.489-132.716c-23.218-22.029-50.469-25.729-68.947-26.595c-1.599-0.074-3.31-0.18-5.121-0.29
	c-4.765-0.291-10.167-0.621-16.191-0.621c-0.003,0-0.005,0-0.007,0c-28.418,0.001-51.564,8.306-70.762,25.387
	c-26.709,23.764-45.645,65.092-56.282,122.838c-30.632,166.283-30.591,286.455-30.567,358.257l0.001,5.917
	c0,54.172,14.627,119.113,39.126,173.717c28.557,63.646,66.956,104.796,108.125,115.871c16.195,4.356,32.318,6.566,47.918,6.566
	c46.037,0,85.852-19.015,112.111-53.54c12.542-16.49,21.502-35.871,26.859-57.531l3.272-2.672c-0.687-0.842-1.38-1.67-2.071-2.498
	C609.619,390.284,607.266,346.294,594.065,298.653z M351.381,456.39c0.78-11.313,7.074-23.88,17.928-35.671
	c12.561-13.647,30.176-24.976,49.602-31.897c26.529-9.453,92.939-22.913,156.201,45.313c-4.664,15.661-11.6,29.709-20.802,41.809
	c-21.614,28.418-54.646,44.069-93.009,44.069c-13.496,0-27.52-1.933-41.684-5.742C395.542,507.793,372.086,487.7,351.381,456.39z
	 M327.156,411.751c-8.047-17.934-15.013-37.348-20.67-57.166c10.835-7.002,34.749-20.137,65.054-22.771
	c7.215-0.627,13.652-4.094,18.616-10.025c6.471-7.732,10.44-19.842,12.579-35.739c4.668,0.702,15.771,2.128,28.94,2.128
	c19.608,0,35.847-3.193,48.18-9.365c2.735,20.922,5.836,36.6,9.549,45.615c6.161,14.962,17.745,23.503,34.433,25.386
	c12.568,1.417,26.097-1.119,39.182-3.571c5.695-1.068,11.193-2.092,16.214-2.713c3.366,22.27,3.882,43.199,1.614,62.382
	c-22.92-21.387-48.205-35.941-75.479-43.392c-13.586-3.711-27.464-5.562-41.337-5.562c-17.941-0.001-35.876,3.094-53.174,9.257
	c-34.898,12.436-62.893,36.126-75.811,62.005C332.348,422.937,329.713,417.451,327.156,411.751z M476.808,252.022
	c-7.909,7.867-23.686,12.154-45.133,12.154c-6.966,0-13.323-0.463-18.124-0.959c-1.651-17.766-5.291-58.015-8.357-99.555
	c-6.852-92.819-5.313-116.159-4.239-121.961c6.313-5.709,16.341-8.949,27.9-8.95c0.001,0,0.004,0,0.005,0
	c14.014,0,27.554,5.035,32.892,11.978l3.917,53.453c0.457,7.188,0.92,14.6,1.391,22.142
	C470.231,171.153,473.241,216.429,476.808,252.022z M368.174-8.04c-15.352-13.524-31.225-27.509-17.114-97.738
	c10.14-50.467,19.193-74.249,32.294-84.825c12.926-10.436,33.609-10.42,67.855-10.381l1.279,0.001
	c39.709,0.038,45.921,23.29,48.015,109.135c0.909,37.278-8.55,51.918-18.565,67.417c-7.27,11.251-14.696,22.759-18.084,41.014
	c-9.849-4.994-21.977-7.83-34.994-7.83c-0.003,0-0.004,0-0.007,0c-15.075,0.002-28.88,4.097-39.286,11.431
	C385.033,6.813,376.25-0.925,368.174-8.04z M570.936,305.063c1.387,5.005,2.631,9.955,3.762,14.857
	c-5.33,0.718-10.762,1.729-16.102,2.73c-27.746,5.202-41.428,6.172-47-7.361c-4.023-9.772-7.444-32.334-10.395-60.572
	l-11.59-158.183c-1.072-16.867-2.113-32.503-3.148-45.621c-2.683-33.975,5.4-46.483,15.633-62.32
	c11.011-17.04,23.49-36.353,22.4-81.028c-0.945-38.759-2.479-72.688-11.692-95.375c-10.289-25.332-29.447-37.145-60.293-37.174
	l-1.277-0.001c-1.844-0.002-3.662-0.004-5.446-0.004c-35.173,0-58.919,0.702-77.51,15.711
	c-18.422,14.872-29.084,40.719-40.748,98.772c-7.421,36.936-7.868,63.563-1.408,83.798c6.043,18.927,17.213,28.768,26.188,36.675
	c10.882,9.587,17.449,15.373,16.215,35.142c-1.318,21.077,1.739,54.791,5.279,93.829c3.123,34.433,6.662,73.461,6.996,105.367
	c0.461,44.056-5.472,57.805-9.049,62.08c-1.19,1.422-1.879,1.482-2.29,1.518c-30.153,2.622-54.544,13.817-69.218,22.335
	c-6.502-28.57-10.11-57.077-10.11-82.38l-0.001-5.926c-0.023-70.979-0.063-189.776,30.17-353.9
	c23.684-128.568,81.629-128.571,103.441-128.572c0.003,0,0.006,0,0.008,0c5.292,0,10.305,0.306,14.727,0.576
	c1.932,0.118,3.757,0.229,5.461,0.309c23.692,1.111,86.627,4.062,88.563,135.69c0.353,23.935,0.331,47.058,0.31,69.419
	C532.715,69.005,532.625,166.813,570.936,305.063z"/>
</svg>
