<?xml version="1.0" encoding="UTF-8" standalone="no"?>
<!-- Generator: Adobe Illustrator 16.0.0, SVG Export Plug-In . SVG Version: 6.00 Build 0)  -->
<!DOCTYPE svg  PUBLIC '-//W3C//DTD SVG 1.1//EN'  'http://www.w3.org/Graphics/SVG/1.1/DTD/svg11.dtd'>
<svg id="Capa_1" xmlns="http://www.w3.org/2000/svg" xml:space="preserve" height="1081.5px" viewBox="212.5 -281.5 792 1081.5" width="792px" version="1.1" y="0px" x="0px" xmlns:xlink="http://www.w3.org/1999/xlink" enable-background="new 212.5 -281.5 792 1081.5">
<path d="m642.34 675.77c-0.692 0.828-1.385 1.656-2.071 2.498l3.272 2.672c5.356 21.66 14.317 41.041 26.859 57.531 26.26 34.525 66.074 53.54 112.11 53.54 15.601 0 31.724-2.21 47.919-6.566 41.169-11.075 79.567-52.226 108.12-115.87 24.5-54.604 39.127-119.55 39.127-173.72l0.001-5.917c0.023-71.801 0.063-191.97-30.567-358.26-10.63-57.732-29.57-99.06-56.28-122.82-19.19-17.084-42.34-25.389-70.76-25.39h-0.007c-6.024 0-11.427 0.33-16.191 0.621-1.812 0.11-3.522 0.216-5.121 0.29-18.479 0.866-45.729 4.565-68.947 26.595-27.27 25.882-41.57 70.534-42.48 132.71-0.355 24.122-0.334 47.341-0.313 69.795 0.099 106.29 0.183 198.08-37.253 333.18-13.21 47.63-15.56 91.62-7.42 129.11zm181.86 86.5c-14.164 3.81-28.188 5.742-41.685 5.742-38.362 0-71.394-15.651-93.008-44.069-9.203-12.1-16.138-26.147-20.803-41.809 63.262-68.227 129.67-54.767 156.2-45.313 19.426 6.922 37.042 18.25 49.603 31.897 10.854 11.791 17.147 24.357 17.928 35.671-20.71 31.31-44.17 51.4-68.24 57.88zm84.57-86.05c-12.918-25.879-40.913-49.57-75.811-62.005-17.298-6.163-35.232-9.258-53.175-9.257-13.872 0-27.75 1.85-41.336 5.562-27.274 7.45-52.56 22.005-75.479 43.392-2.268-19.184-1.753-40.112 1.614-62.383 5.021 0.622 10.518 1.646 16.214 2.713 13.085 2.453 26.613 4.989 39.182 3.572 16.688-1.883 28.271-10.424 34.433-25.386 3.713-9.016 6.813-24.693 9.549-45.616 12.333 6.173 28.571 9.366 48.18 9.366 13.169 0 24.271-1.426 28.94-2.128 2.139 15.897 6.108 28.007 12.579 35.739 4.963 5.931 11.4 9.397 18.616 10.025 30.305 2.636 54.219 15.771 65.054 22.772-5.657 19.817-12.623 39.23-20.67 57.165-2.54 5.71-5.17 11.2-7.87 16.48zm-132.01-307.9c0.471-7.542 0.934-14.954 1.391-22.142l3.917-53.453c5.338-6.942 18.877-11.978 32.892-11.978h0.005c11.56 0.001 21.588 3.241 27.9 8.95 1.073 5.802 2.612 29.142-4.239 121.96-3.066 41.54-6.706 81.788-8.357 99.555-4.802 0.495-11.158 0.959-18.124 0.959-21.447 0-37.224-4.287-45.133-12.154 3.56-35.6 6.57-80.88 9.75-131.71zm77.49-100.14c-10.406-7.334-24.211-11.429-39.286-11.431h-0.008c-13.018 0-25.145 2.836-34.993 7.83-3.388-18.255-10.814-29.763-18.084-41.014-10.016-15.499-19.475-30.139-18.565-67.417 2.094-85.845 8.306-109.1 48.015-109.14l1.279-0.001c34.246-0.039 54.93-0.055 67.855 10.381 13.101 10.576 22.154 34.358 32.294 84.825 14.11 70.229-1.763 84.214-17.114 97.738-8.1 7.12-16.88 14.85-21.41 28.22zm-143.25-54.73c-0.021-22.361-0.042-45.484 0.311-69.419 1.94-131.62 64.87-134.57 88.57-135.68 1.704-0.079 3.529-0.19 5.461-0.309 4.422-0.271 9.435-0.576 14.727-0.576h0.008c21.813 0.001 79.758 0.004 103.44 128.57 30.232 164.12 30.193 282.92 30.17 353.9l-0.001 5.925c0 25.304-3.609 53.81-10.11 82.38-14.674-8.518-39.065-19.713-69.218-22.335-0.411-0.036-1.1-0.096-2.29-1.518-3.577-4.275-9.51-18.024-9.049-62.08 0.334-31.907 3.873-70.935 6.996-105.37 3.54-39.038 6.597-72.752 5.279-93.829-1.235-19.769 5.333-25.555 16.215-35.142 8.975-7.907 20.145-17.748 26.188-36.675 6.46-20.234 6.013-46.862-1.408-83.798-11.664-58.054-22.326-83.9-40.748-98.772-18.591-15.009-42.337-15.711-77.51-15.711-1.784 0-3.603 0.002-5.446 0.004l-1.277 0.001c-30.846 0.029-50.004 11.842-60.293 37.174-9.215 22.688-10.747 56.616-11.692 95.375-1.09 44.676 11.39 63.988 22.4 81.028 10.232 15.837 18.315 28.346 15.633 62.32-1.035 13.118-2.076 28.754-3.148 45.621l-11.59 158.18c-2.95 28.238-6.371 50.8-10.395 60.571-5.572 13.533-19.254 12.564-47 7.362-5.34-1.001-10.771-2.013-16.102-2.73 1.131-4.902 2.375-9.853 3.762-14.858 38.31-138.23 38.22-236.04 38.12-339.59z" fill="#fff"/>
<path d="m594.06 298.65c-37.436-135.09-37.352-226.89-37.254-333.18 0.021-22.454 0.043-45.673-0.313-69.795-0.914-62.182-15.21-106.83-42.489-132.72-23.218-22.029-50.469-25.729-68.947-26.595-1.599-0.074-3.31-0.18-5.121-0.29-4.765-0.291-10.167-0.621-16.191-0.621h-0.007c-28.418 0.001-51.564 8.306-70.762 25.387-26.709 23.764-45.645 65.092-56.282 122.84-30.632 166.28-30.591 286.46-30.567 358.26l0.001 5.917c0 54.172 14.627 119.11 39.126 173.72 28.557 63.646 66.956 104.8 108.12 115.87 16.195 4.356 32.318 6.566 47.918 6.566 46.037 0 85.852-19.015 112.11-53.54 12.542-16.49 21.502-35.871 26.859-57.531l3.272-2.672c-0.687-0.842-1.38-1.67-2.071-2.498 8.15-37.5 5.8-81.49-7.41-129.13zm-242.68 157.74c0.78-11.313 7.074-23.88 17.928-35.671 12.561-13.647 30.176-24.976 49.602-31.897 26.529-9.453 92.939-22.913 156.2 45.313-4.664 15.661-11.6 29.709-20.802 41.809-21.614 28.418-54.646 44.069-93.009 44.069-13.496 0-27.52-1.933-41.684-5.742-24.08-6.48-47.53-26.57-68.24-57.88zm-24.22-44.64c-8.047-17.934-15.013-37.348-20.67-57.166 10.835-7.002 34.749-20.137 65.054-22.771 7.215-0.627 13.652-4.094 18.616-10.025 6.471-7.732 10.44-19.842 12.579-35.739 4.668 0.702 15.771 2.128 28.94 2.128 19.608 0 35.847-3.193 48.18-9.365 2.735 20.922 5.836 36.6 9.549 45.615 6.161 14.962 17.745 23.503 34.433 25.386 12.568 1.417 26.097-1.119 39.182-3.571 5.695-1.068 11.193-2.092 16.214-2.713 3.366 22.27 3.882 43.199 1.614 62.382-22.92-21.387-48.205-35.941-75.479-43.392-13.586-3.711-27.464-5.562-41.337-5.562-17.941-0.001-35.876 3.094-53.174 9.257-34.898 12.436-62.893 36.126-75.811 62.005-2.69-5.28-5.33-10.77-7.88-16.47zm149.65-159.73c-7.909 7.867-23.686 12.154-45.133 12.154-6.966 0-13.323-0.463-18.124-0.959-1.651-17.766-5.291-58.015-8.357-99.555-6.852-92.819-5.313-116.16-4.239-121.96 6.313-5.709 16.341-8.949 27.9-8.95h0.005c14.014 0 27.554 5.035 32.892 11.978l3.917 53.453c0.457 7.188 0.92 14.6 1.391 22.142 3.17 50.83 6.18 96.11 9.75 131.7zm-108.64-260.06c-15.352-13.524-31.225-27.509-17.114-97.738 10.14-50.467 19.193-74.249 32.294-84.825 12.926-10.436 33.609-10.42 67.855-10.381l1.279 0.001c39.709 0.038 45.921 23.29 48.015 109.14 0.909 37.278-8.55 51.918-18.565 67.417-7.27 11.251-14.696 22.759-18.084 41.014-9.849-4.994-21.977-7.83-34.994-7.83h-0.007c-15.075 0.002-28.88 4.097-39.286 11.431-4.54-13.379-13.32-21.117-21.4-28.232zm202.77 313.1c1.387 5.005 2.631 9.955 3.762 14.857-5.33 0.718-10.762 1.729-16.102 2.73-27.746 5.202-41.428 6.172-47-7.361-4.023-9.772-7.444-32.334-10.395-60.572l-11.59-158.18c-1.072-16.867-2.113-32.503-3.148-45.621-2.683-33.975 5.4-46.483 15.633-62.32 11.011-17.04 23.49-36.353 22.4-81.028-0.945-38.759-2.479-72.688-11.692-95.375-10.289-25.332-29.447-37.145-60.293-37.174l-1.277-0.001c-1.844-0.002-3.662-0.004-5.446-0.004-35.173 0-58.919 0.702-77.51 15.711-18.422 14.872-29.084 40.719-40.748 98.772-7.421 36.936-7.868 63.563-1.408 83.798 6.043 18.927 17.213 28.768 26.188 36.675 10.882 9.587 17.449 15.373 16.215 35.142-1.318 21.077 1.739 54.791 5.279 93.829 3.123 34.433 6.662 73.461 6.996 105.37 0.461 44.056-5.472 57.805-9.049 62.08-1.19 1.422-1.879 1.482-2.29 1.518-30.153 2.622-54.544 13.817-69.218 22.335-6.502-28.57-10.11-57.077-10.11-82.38l-0.001-5.926c-0.023-70.979-0.063-189.78 30.17-353.9 23.684-128.57 81.629-128.57 103.44-128.57h0.008c5.292 0 10.305 0.306 14.727 0.576 1.932 0.118 3.757 0.229 5.461 0.309 23.692 1.111 86.627 4.062 88.563 135.69 0.353 23.935 0.331 47.058 0.31 69.419-0.09 103.53-0.19 201.33 38.13 339.58z" fill="#fff"/>
</svg>
