<?xml version="1.0" encoding="UTF-8" standalone="no"?>
<!-- Generator: Adobe Illustrator 16.0.0, SVG Export Plug-In . SVG Version: 6.00 Build 0)  -->
<!DOCTYPE svg  PUBLIC '-//W3C//DTD SVG 1.1//EN'  'http://www.w3.org/Graphics/SVG/1.1/DTD/svg11.dtd'>
<svg id="Layer_1" xmlns="http://www.w3.org/2000/svg" xml:space="preserve" height="64px" viewBox="-96.483 -26.622 246.932 64" width="246.93px" version="1.1" y="0px" x="0px" xmlns:xlink="http://www.w3.org/1999/xlink" enable-background="new -96.483 -26.622 246.932 64">
	<path id="XMLID_47_" d="m-40.919-12.206c-2.062 0.88-4.24 1.485-6.548 1.765 2.361-1.396 4.154-3.593 5.021-6.208-2.212 1.282-4.643 2.213-7.239 2.72-2.08-2.177-5.037-3.549-8.316-3.549-6.303 0-11.397 5.025-11.397 11.229 0 0.88 0.097 1.728 0.291 2.555-9.48-0.483-17.893-4.945-23.501-11.736-0.979 1.657-1.549 3.588-1.549 5.64 0 3.886 2.021 7.315 5.083 9.333-1.873-0.053-3.634-0.555-5.175-1.396v0.15c0 1.444 0.282 2.798 0.778 4.062 1.403 3.51 4.524 6.179 8.372 6.923-0.961 0.272-1.974 0.402-3.004 0.402-0.739 0-1.449-0.061-2.145-0.203 1.458 4.459 5.666 7.698 10.647 7.795-3.905 3.014-8.806 4.816-14.155 4.816-0.926 0-1.825-0.065-2.729-0.172 5.058 3.198 11.044 5.051 17.475 5.051 17.817 0 28.753-12.348 31.662-25.162 0.497-2.267 0.753-4.542 0.753-6.768 0-0.487 0-0.973-0.039-1.463 2.251-1.57 4.186-3.543 5.715-5.784z" fill="#141414"/>
	<path id="XMLID_19_" d="m3.127-3.821v-3.777c0-1.83 1.223-2.26 2.077-2.26h5.282v-8.069l-7.273-0.028c-8.068 0-9.913 6.017-9.913 9.866v4.263h-4.667v9.416h4.719v23.545h9.414v-23.545h6.994l0.328-3.704 0.521-5.721h-7.486v0.014h0.004z" fill="#111"/>
		<g fill="#111">
			<path d="m33.479 5.052c-0.16 7.979 5.335 15.59 12.895 18.066 7.117 2.397 15.869 0.609 20.611-5.494 3.461-4.266 4.246-9.959 3.873-15.29-6.105-0.055-12.201-0.032-18.282-0.022-0.019 2.172 0 4.334 0.009 6.499 3.646 0.106 7.304 0.069 10.948 0.139-0.919 3.156-3.018 6.096-6.206 7.237-6.156 2.708-14.012-0.842-15.943-7.288-2.334-6.186 1.483-13.642 7.801-15.442 3.918-1.377 7.957 0.176 11.303 2.216 1.696-1.594 3.286-3.29 4.848-5.007-3.807-3.185-8.696-5.139-13.72-4.709-9.872 0.118-18.507 9.233-18.137 19.095z"/>
			<path d="m82.726-3.174c-0.023 1.823-0.042 3.648-0.047 5.462-1.825 0.019-3.643 0.027-5.453 0.037v5.437c1.812 0.009 3.637 0.019 5.453 0.042 0.019 1.812 0.019 3.632 0.036 5.453 1.804 0 3.623-0.01 5.436 0 0.014-1.826 0.019-3.642 0.037-5.463 1.814-0.014 3.642-0.023 5.462-0.032v-5.437c-1.82-0.01-3.643-0.019-5.462-0.037-0.009-1.818-0.023-3.644-0.037-5.462h-5.425z"/>
				<path d="m33.479 5.052c-0.37-9.862 8.265-18.977 18.136-19.095 5.028-0.43 9.921 1.524 13.726 4.709-1.566 1.717-3.151 3.413-4.844 5.007-3.354-2.04-7.389-3.593-11.309-2.216-6.321 1.8-10.144 9.256-7.795 15.441 1.932 6.446 9.787 9.996 15.934 7.288 3.188-1.142 5.287-4.081 6.206-7.237-3.646-0.073-7.306-0.032-10.957-0.139-0.009-2.165-0.019-4.327-0.009-6.499 6.09-0.01 12.186-0.033 18.281 0.022 0.383 5.331-0.402 11.024-3.863 15.29-4.742 6.1-13.498 7.893-20.611 5.494-7.56-2.475-13.055-10.092-12.895-18.065z"/>
				<path d="m82.726-3.174h5.425c0.014 1.823 0.028 3.648 0.037 5.462 1.814 0.014 3.642 0.027 5.462 0.037v5.437c-1.82 0.009-3.643 0.019-5.462 0.032-0.016 1.821-0.023 3.642-0.037 5.463-1.812-0.01-3.632 0-5.436 0-0.019-1.826-0.019-3.642-0.036-5.453-1.816-0.019-3.643-0.028-5.453-0.037v-5.437c1.812-0.018 3.628-0.023 5.453-0.037 0.005-1.819 0.023-3.644 0.047-5.467z"/>
		</g>
		<path d="m136.4 15.447c-2.648-0.208-3.753-1.517-5.823-2.773-1.128 5.971-2.527 11.692-6.646 14.688-1.271-9.021 1.866-15.805 3.321-22.99-2.479-4.183 0.302-12.603 5.537-10.529 6.455 2.551-5.582 15.543 2.5 17.179 8.43 1.687 11.881-14.642 6.646-19.947-7.564-7.671-21.996-0.176-20.223 10.805 0.431 2.683 3.207 3.496 1.108 7.197-4.833-1.077-6.279-4.885-6.09-9.968 0.295-8.323 7.477-14.152 14.682-14.961 9.107-1.02 17.657 3.346 18.836 11.911 1.31 9.665-4.12 20.136-13.86 19.388z" fill="#111"/>
</svg>
