<?xml version="1.0" encoding="UTF-8" standalone="no"?>
<!DOCTYPE svg  PUBLIC '-//W3C//DTD SVG 1.1//EN'  'http://www.w3.org/Graphics/SVG/1.1/DTD/svg11.dtd'>
<svg id="Layer_1" style="enable-background:new 4 4 120 120" xmlns="http://www.w3.org/2000/svg" xml:space="preserve" height="120px" viewBox="4 4 120 120" width="120px" version="1.1" xmlns:xlink="http://www.w3.org/1999/xlink"><g id="bubble1"><path d="m115.89 33.953c-0.873-3.055-3.186-4.673-4.209-7.576-2.604-1.419-4.719-3.327-6.734-5.332-2.479-0.516-4.317-1.672-7.018-1.965-0.117-0.63-1.49-0.008-1.682-0.561-0.975 0.225-1.081-0.419-1.966-0.28-1.097-0.494-2.358-0.82-3.649-1.123-8.473-0.319-16.796-0.788-25.814-0.562-2.249 0.464-4.919 0.507-7.294 0.841-0.85 0.647-2.174 0.822-3.088 1.404-1.068 0.431-1.864 1.13-3.087 1.402-1.197 1.331-2.953 2.101-3.927 3.648-0.999 0.218-1.061 1.374-1.965 1.683-0.534 0.774-1.192 1.429-1.963 1.966-2.234 3.474-5.041 6.371-6.455 10.664-1.318 2.799-1.141 7.089-1.123 11.225 0.36 1.604 0.755 3.172 1.123 4.771 1.035 2.049 2.562 3.609 3.364 5.893 3.393 2.5 5.873 5.916 9.544 8.137 0.987 0.322 2 0.617 2.524 1.404 2.182-0.125 3.22 0.898 5.053 1.122 2.633 0.265 5.134 0.665 8.137 0.562 2.149-0.092 4.151-0.543 6.172 0 0.494 1.752 1.405 3.084 1.965 4.77 1.181 1.066 1.781 2.708 3.086 3.648 0.789 1.457 2.011 2.479 3.089 3.647 0.856 1.388 2.168 2.322 3.366 3.367 0.452 1.476 2.312 2.851 4.21 1.965 0.873-0.063 0.473-1.397 0.561-2.245-0.191-1.128 0.27-1.603 0.281-2.525-0.101-2.063 0.547-3.381 0.562-5.332 0.42-1.543 0.7-3.23 0.843-5.051 0.307-0.627 0.465-1.405 0.84-1.966 0.582-0.448 0.346-1.711 0.846-2.243 1.871-0.184 3.166-0.945 5.051-1.123 1.141-0.914 3.436-0.679 4.77-1.401 1.979-0.082 3.233-0.886 5.051-1.123 0.355-0.675 1.493-0.563 1.965-1.122 0.899-0.131 0.988-1.07 1.965-1.123-0.131-0.881 0.756-0.74 0.842-1.402 0.127-0.717 0.395-1.291 0.841-1.686 0.757-0.928 1.233-2.136 1.966-3.085 0.672-2.511 1.678-4.685 2.246-7.298-0.19-5.304 1-11.334-0.29-15.995zm-5.33 20.765c-3.082 4.869-8.242 7.661-14.311 9.541-3.572-0.079-6.385-0.42-9.823 0-0.864 0.728-0.622 2.558-1.122 3.649 0.055 1.551-0.773 2.221-0.561 3.928-0.164 2.925-1.025 5.148-1.125 8.139-1.49-0.472-1.711-2.216-3.084-2.806-0.561-1.403-1.924-2.007-2.524-3.368-0.435-0.598-1.017-1.046-1.405-1.685-0.504-0.433-0.227-1.646-1.121-1.683-0.777-1.188-1.432-2.5-2.525-3.369h-6.736c-5.767-0.312-9.083-3.076-13.75-4.488-2.457-2.035-4.869-4.111-7.014-6.454-0.743-2.625-1.958-4.776-3.087-7.015-0.237-2.197-0.367-4.5-0.281-7.018-0.137-1.512 0.993-0.016 1.404-0.84 0.198-0.926 0.451-1.795 0.561-2.808 1.287-0.956 1.681-2.807 3.084-3.647 0.485-1.762 2.113-2.379 2.808-3.929 1.438-0.901 2.588-2.086 3.927-3.087 1.615-0.727 3.233-1.445 4.77-2.246 3.501-1.174 6.879-2.477 10.667-3.365 0.75-0.371 1.492-0.756 2.243-1.123 0.157-0.404 0.44-0.686 0.841-0.843 5.844-0.415 9.281 1.569 13.471 2.807 4.138-0.113 7.482 0.563 11.505 0.562 0.073 0.584 1.235 0.076 1.405 0.561 0.676-0.115 0.609 0.512 1.402 0.281-0.199 0.762 1.323-0.2 1.122 0.561 0.675-0.114 0.609 0.513 1.401 0.281 0.816 0.777 1.646 1.534 2.529 2.245 0.523 1.252 1.311 2.239 1.684 3.647 0.926 1.598 2.372 2.679 3.086 4.49 0.643 2.445 0.43 5.471 1.402 8.138 0.01 3.939 0.2 8.064-0.84 10.944zm-42.095 28.063c-1.326 0.64-1.891 2.035-3.088 2.806-1.976 1.951-4.108 3.746-7.015 4.771-4.731 1.141-11.762 1.09-16.835 0.283-0.631 0.771-0.941 1.862-1.685 2.523-0.104 1.297-1.216 1.59-1.403 2.806-1.155 0.716-2.034 1.708-3.086 2.525 0.049 0.985-0.947 0.924-1.122 1.685-0.332 0.135-0.634 0.299-0.843 0.562-0.403-0.149-0.684 1.094-0.839 0.28 1.16-3.854 0.251-9.045-0.28-12.908-2.038-1.985-4.83-3.215-7.298-4.771-0.653-0.376-0.433-1.624-0.842-2.244-1.268-0.604-2.038-1.705-2.805-2.807-0.467-0.939-0.939-1.869-1.404-2.807-0.092-0.655-0.336-1.16-0.561-1.685 0.526-1.274-1.114-0.381-0.84-1.401-0.214-1.524 0.445-2.176 0.281-3.648-0.175-3.15 0.057-5.433 0-8.98 1.977-3.072 4.251-5.85 7.014-8.138 1.222-1.303 2.822-2.227 4.211-3.368 0.859-0.354 1.476-0.955 2.244-1.402 0.527-0.781 2.231-0.386 2.246-1.683 0.136-0.888-0.509-0.991-0.283-1.966-0.436-0.405-1.093-0.59-1.683-0.842-0.359 0.016-0.391 0.36-0.842 0.281-5.68 1.336-8.81 5.222-12.628 8.418-3.101 3.914-6.445 7.587-7.577 13.471v6.734c0.38 2.516 1.051 4.731 1.965 6.733 0.903 1.978 2.001 3.806 3.366 5.332 1.097 1.806 2.684 3.116 4.211 4.489 0.774 0.631 1.867 0.939 2.525 1.686 1.003 0.491 2.465 0.525 3.084 1.401 0.473 2.304-0.478 3.972-0.278 6.735-0.764 2.136-0.953 4.847-1.684 7.016-0.018 1.384-0.826 1.98-0.841 3.368-0.4 0.345-0.533 0.963-0.561 1.683-0.4 0.344-0.639 1.07-0.279 1.402 3.166 0.592 5.154-1.782 7.854-2.523 2.241-1.406 4.429-2.867 6.455-4.49 2.443-2.797 4.327-6.149 6.736-8.98 4.791 0.823 10.105-0.152 15.152 0 3.512-1.07 6.178-2.986 8.701-5.052 1.955-2.455 5.039-4.91 4.207-9.259-1.845 0.023-2.865 0.876-3.65 1.962z"/></g></svg>
